<?xml version="1.0" encoding="UTF-8"?> <svg xmlns="http://www.w3.org/2000/svg" width="5000" height="6000" viewBox="0 0 5000 6000" fill="none"> <g clip-path="url(#clip0)"> <g opacity="0.470001"> <g opacity="0.470001"> <path opacity="0.470001" d="M6155.46 3751.46L5570.69 4340.48V4342.96C5569.17 4342.96 5567.66 4343.54 5566.5 4344.71L4977.53 4937.95L4491.63 4448.5L4582.1 4357.38L4973.35 4751.46C4974.5 4752.64 4976.02 4753.22 4977.53 4753.22C4979.06 4753.22 4980.58 4752.64 4981.73 4751.46L5570.69 4158.22V4155.75C5572.22 4155.75 5573.73 4155.16 5574.89 4154L5970.32 3755.69C5971.48 3754.52 5972.06 3752.99 5972.06 3751.46C5972.06 3749.93 5971.48 3748.41 5970.32 3747.24L5579.08 3353.15L5669.55 3262.02L6155.46 3751.46ZM3797.59 6126.38L3311.68 5636.94L3402.15 5545.81L3793.39 5939.9C3794.55 5941.06 3796.06 5941.65 3797.59 5941.65C3799.11 5941.65 3800.62 5941.06 3801.78 5939.9L4390.74 5346.65V5346.27L4784.02 4950.14C4785.05 4949.1 4785.55 4947.76 4785.66 4946.39H4785.76C4785.76 4946.31 4785.71 4946.23 4785.71 4946.16C4785.71 4946.07 4785.76 4945.99 4785.76 4945.92H4785.66C4785.55 4944.55 4785.05 4943.21 4784.02 4942.17L4392.78 4548.08L4483.24 4456.95L4968.91 4946.16L4384.39 5534.93V5535.32L3797.59 6126.38ZM3204.43 6723.84V6726.32C3202.92 6726.32 3201.4 6726.9 3200.24 6728.07L2611.28 7321.31L2125.37 6831.87L2215.84 6740.74L2607.09 7134.83C2608.24 7136 2609.76 7136.58 2611.28 7136.58C2612.8 7136.58 2614.32 7136 2615.47 7134.83L3204.43 6541.59V6539.12C3205.96 6539.12 3207.47 6538.53 3208.63 6537.36L3604.06 6139.05C3605.22 6137.89 3605.8 6136.36 3605.8 6134.83C3605.8 6133.3 3605.22 6131.77 3604.06 6130.61L3212.82 5736.52L3303.3 5645.39L3789.2 6134.83L3204.43 6723.84ZM3015.11 6134.83L3204.43 5944.12L3393.76 6134.83L3204.43 6325.54L3015.11 6134.83ZM2314.71 6641.17L2409.37 6736.52L2607.09 6935.67C2608.24 6936.84 2609.76 6937.42 2611.28 6937.42C2612.8 6937.42 2614.32 6936.84 2615.47 6935.67L2813.19 6736.52L3204.43 6342.43V6339.96C3205.96 6339.96 3207.47 6339.37 3208.63 6338.21L3406.34 6139.05C3407.5 6137.89 3408.08 6136.36 3408.08 6134.83C3408.08 6133.3 3407.5 6131.77 3406.34 6130.61L3208.63 5931.45C3207.47 5930.28 3205.95 5929.7 3204.43 5929.7C3202.92 5929.7 3201.4 5930.28 3200.24 5931.45L3002.52 6130.61C3001.36 6131.77 3000.78 6133.3 3000.78 6134.83C3000.78 6136.36 3001.36 6137.89 3002.52 6139.05L3196.04 6333.98L3105.57 6425.12L2817.38 6134.83L3204.43 5744.97L3591.48 6134.83L3204.43 6524.69V6527.16C3202.92 6527.16 3201.4 6527.75 3200.24 6528.91L2611.28 7122.16L2224.23 6732.29L2314.71 6641.17ZM2512.42 6442.01L2602.9 6533.14L2413.56 6723.84L2323.09 6632.72L2512.42 6442.01ZM2800.61 6732.29L2611.28 6923L2421.95 6732.29L2611.28 6541.59L2800.61 6732.29ZM2611.28 6342.43L2899.47 6632.72L2809 6723.84L2615.47 6528.91L2520.81 6433.56L2611.28 6342.43ZM2710.14 6242.85L2998.33 6533.14L2907.85 6624.27L2619.67 6333.98L2710.14 6242.85ZM2809 6143.27L3097.19 6433.56L3006.72 6524.69L2718.53 6234.4L2809 6143.27ZM4384.58 4755.88L4573.48 4946.16L4390.55 5130.42L4201.65 4940.13L4384.58 4755.88ZM3501.01 5446.23L3595.67 5541.59L3793.39 5740.74C3794.55 5741.91 3796.06 5742.49 3797.59 5742.49C3799.11 5742.49 3800.62 5741.91 3801.78 5740.74L3999.5 5541.59L4390.74 5147.49V5147.12L4586.3 4950.14C4587.33 4949.1 4587.83 4947.76 4587.94 4946.39H4588.04C4588.04 4946.31 4587.99 4946.23 4587.99 4946.16C4587.99 4946.07 4588.04 4945.99 4588.04 4945.92H4587.94C4587.83 4944.55 4587.33 4943.21 4586.3 4942.17L4390.74 4745.19V4735.24C4389.22 4735.24 4387.7 4735.83 4386.54 4737L4188.83 4936.15C4187.79 4937.19 4187.29 4938.53 4187.18 4939.89H4187.09C4187.09 4939.98 4187.13 4940.05 4187.13 4940.13C4187.13 4940.22 4187.09 4940.29 4187.09 4940.38H4187.18C4187.29 4941.74 4187.79 4943.08 4188.83 4944.12L4382.36 5139.05L4291.88 5230.18L4003.93 4940.13L4384.58 4556.72L4771.2 4946.16L4384.39 5335.78V5336.15L3797.59 5927.23L3410.54 5537.36L3501.01 5446.23ZM3698.73 5247.07L3789.2 5338.21L3599.86 5528.91L3509.4 5437.78L3698.73 5247.07ZM3986.92 5537.36L3797.59 5728.07L3608.25 5537.36L3797.59 5346.65L3986.92 5537.36ZM3797.59 5147.49L4085.78 5437.78L3995.31 5528.91L3801.78 5333.98L3707.12 5238.63L3797.59 5147.49ZM3896.44 5047.92L4184.63 5338.21L4094.17 5429.33L3805.98 5139.05L3896.44 5047.92ZM3995.31 4948.34L4283.49 5238.63L4193.02 5329.76L3904.83 5039.47L3995.31 4948.34ZM5381.36 3751.46L5570.69 3560.76L5760.03 3751.46L5570.69 3942.17L5381.36 3751.46ZM4680.96 4257.8L4775.63 4353.15L4973.35 4552.31C4974.5 4553.47 4976.02 4554.06 4977.53 4554.06C4979.06 4554.06 4980.58 4553.47 4981.73 4552.31L5179.45 4353.15L5570.69 3959.07V3956.59C5572.22 3956.59 5573.73 3956.01 5574.89 3954.84L5772.6 3755.69C5773.76 3754.52 5774.34 3752.99 5774.34 3751.46C5774.34 3749.93 5773.76 3748.41 5772.6 3747.24L5574.89 3548.08C5573.73 3546.91 5572.21 3546.33 5570.69 3546.33C5569.17 3546.33 5567.66 3546.91 5566.5 3548.08L5368.78 3747.24C5367.62 3748.41 5367.04 3749.93 5367.04 3751.46C5367.04 3752.99 5367.62 3754.52 5368.78 3755.69L5562.3 3950.62L5471.84 4041.75L5183.65 3751.46L5570.69 3361.59L5957.74 3751.46L5570.69 4141.33V4143.8C5569.17 4143.8 5567.66 4144.38 5566.5 4145.55L4977.53 4738.79L4590.49 4348.93L4680.96 4257.8ZM4878.68 4058.64L4969.15 4149.77L4779.82 4340.48L4689.35 4249.35L4878.68 4058.64ZM5166.87 4348.93L4977.53 4539.64L4788.21 4348.93L4977.53 4158.22L5166.87 4348.93ZM4977.53 3959.07L5265.73 4249.35L5175.26 4340.48L4981.73 4145.55L4887.07 4050.2L4977.53 3959.07ZM5076.4 3859.49L5364.58 4149.77L5274.11 4240.9L4985.92 3950.62L5076.4 3859.49ZM5175.26 3759.91L5463.45 4050.2L5372.97 4141.33L5084.79 3851.04L5175.26 3759.91ZM6064.98 2863.71L6155.46 2954.84L5966.13 3145.55L5875.66 3054.42L6064.98 2863.71ZM6163.85 2764.13L6452.04 3054.42L6361.56 3145.55L6168.04 2950.62L6073.37 2855.26L6163.85 2764.13ZM6262.7 2664.55L6550.89 2954.84L6460.43 3045.97L6172.24 2755.68L6262.7 2664.55ZM6361.56 2564.98L6649.75 2855.26L6559.28 2946.39L6271.09 2656.11L6361.56 2564.98ZM6163.85 3344.7L5974.51 3153.99L6163.85 2963.29L6353.17 3153.99L6163.85 3344.7ZM5961.93 3158.22L6159.65 3357.37C6160.81 3358.54 6162.32 3359.13 6163.85 3359.13C6165.37 3359.13 6166.88 3358.54 6168.04 3357.37L6365.76 3158.22L6757 2764.13V2747.24L6567.67 2556.53H6553.35C6553.35 2558.05 6553.93 2559.58 6555.09 2560.75L6748.61 2755.68L6658.14 2846.82L6369.95 2556.53H6353.17L5570.69 3344.7V3347.18C5569.17 3347.18 5567.66 3347.76 5566.5 3348.93L5171.06 3747.24C5169.9 3748.41 5169.32 3749.93 5169.32 3751.46H5166.87L4384.39 4539.64V4540.02L3991.11 4936.15C3990.07 4937.19 3989.58 4938.53 3989.47 4939.89H3986.92L3204.43 5728.07V5730.54C3202.92 5730.54 3201.4 5731.12 3200.24 5732.29L2804.8 6130.61C2803.65 6131.77 2803.06 6133.3 2803.06 6134.83H2800.61L2018.13 6923V6923.02L1623.98 7320.03C1622.83 7321.2 1622.25 7322.72 1622.25 7324.25H1636.56L2018.14 6939.91L2405.17 7329.76H2419.5C2419.5 7328.23 2418.92 7326.7 2417.76 7325.54L2026.52 6931.45L2116.98 6840.32L2602.9 7329.76H2619.67L3204.43 6740.74V6738.27C3205.96 6738.27 3207.47 6737.69 3208.63 6736.52L3801.78 6139.05C3802.94 6137.89 3803.52 6136.36 3803.52 6134.83H3805.98L4390.74 5545.81V5545.43L4981.73 4950.14C4982.77 4949.1 4983.27 4947.76 4983.38 4946.39H4985.92L5570.69 4357.38V4354.9C5572.22 4354.9 5573.73 4354.32 5574.89 4353.15L6168.04 3755.69C6169.2 3754.52 6169.78 3752.99 6169.78 3751.46H6172.24L6757 3162.44V3148.02C6755.48 3148.02 6753.96 3148.6 6752.8 3149.77L6163.85 3743.01L5677.94 3253.57L5768.41 3162.44L6159.65 3556.53C6160.81 3557.7 6162.32 3558.28 6163.85 3558.28C6165.37 3558.28 6166.88 3557.7 6168.04 3556.53L6757 2963.29V2948.86C6755.48 2948.86 6753.96 2949.45 6752.8 2950.62L6163.85 3543.86L5776.8 3153.99L5867.27 3062.86L5961.93 3158.22Z" fill="#99C0E9"></path> </g> <g opacity="0.470001"> <path opacity="0.470001" d="M6649.75 4050.2L6559.28 4141.33L6271.09 3851.04L6361.56 3759.91L6649.75 4050.2ZM6460.43 4240.9L6172.24 3950.62L6262.7 3859.49L6550.89 4149.77L6460.43 4240.9ZM6361.56 4340.48L6168.04 4145.55L6073.38 4050.2L6163.85 3959.07L6452.04 4249.35L6361.56 4340.48ZM6163.85 4539.64L5974.51 4348.93L6163.85 4158.22L6353.17 4348.93L6163.85 4539.64ZM5875.66 4249.35L6064.98 4058.64L6155.46 4149.77L5966.13 4340.48L5875.66 4249.35ZM6155.22 4946.16L5570.69 5534.93V5537.41C5569.17 5537.41 5567.66 5537.99 5566.5 5539.16L4977.53 6132.4L4491.63 5642.96L4582.1 5551.83L4973.35 5945.92C4974.5 5947.08 4976.02 5947.67 4977.53 5947.67C4979.06 5947.67 4980.58 5947.08 4981.73 5945.92L5570.69 5352.67V5350.2C5572.22 5350.2 5573.73 5349.62 5574.89 5348.45L5970.32 4950.14C5971.36 4949.1 5971.85 4947.76 5971.97 4946.4H5972.06C5972.06 4946.31 5972.01 4946.23 5972.01 4946.16C5972.01 4946.07 5972.06 4945.99 5972.06 4945.92H5971.97C5971.85 4944.55 5971.36 4943.21 5970.32 4942.17L5579.08 4548.08L5669.55 4456.95L6155.22 4946.16ZM4384.39 6729.87V6730.24L3797.59 7321.31L3311.68 6831.87L3402.15 6740.74L3793.39 7134.83C3794.55 7136 3796.06 7136.58 3797.59 7136.58C3799.11 7136.58 3800.62 7136 3801.78 7134.83L4390.74 6541.59V6541.21L4784.02 6145.07C4785.17 6143.91 4785.76 6142.37 4785.76 6140.84C4785.76 6139.32 4785.17 6137.79 4784.02 6136.62L4392.78 5742.54L4483.24 5651.41L4969.15 6140.84L4384.39 6729.87ZM4384.58 5950.33L4573.71 6140.84L4390.55 6325.35L4201.41 6134.83L4384.58 5950.33ZM3501.01 6641.17L3595.68 6736.52L3793.39 6935.68C3794.55 6936.84 3796.06 6937.42 3797.59 6937.42C3799.11 6937.42 3800.62 6936.84 3801.78 6935.68L3999.5 6736.52L4390.74 6342.43V6342.06L4586.3 6145.07C4587.46 6143.91 4588.04 6142.37 4588.04 6140.84C4588.04 6139.32 4587.46 6137.79 4586.3 6136.62L4390.74 5939.64V5929.7C4389.22 5929.7 4387.7 5930.28 4386.54 5931.45L4188.83 6130.61C4187.67 6131.77 4187.09 6133.3 4187.09 6134.83C4187.09 6136.36 4187.67 6137.89 4188.83 6139.05L4382.35 6333.98L4291.88 6425.12L4003.69 6134.83L4384.58 5751.18L4771.43 6140.84L4384.39 6530.71V6531.09L3797.59 7122.16L3410.54 6732.29L3501.01 6641.17ZM3698.73 6442.01L3789.2 6533.14L3599.87 6723.85L3509.4 6632.72L3698.73 6442.01ZM3986.92 6732.29L3797.59 6923L3608.26 6732.29L3797.59 6541.59L3986.92 6732.29ZM3797.59 6342.43L4085.78 6632.72L3995.31 6723.85L3801.78 6528.91L3707.12 6433.56L3797.59 6342.43ZM3896.44 6242.85L4184.63 6533.14L4094.16 6624.27L3805.97 6333.98L3896.44 6242.85ZM3995.31 6143.28L4283.49 6433.56L4193.02 6524.69L3904.83 6234.4L3995.31 6143.28ZM5381.61 4946.16L5570.69 4755.69L5759.79 4946.16L5570.69 5136.62L5381.61 4946.16ZM4680.97 5452.25L4775.63 5547.6L4973.35 5746.76C4974.5 5747.93 4976.02 5748.51 4977.53 5748.51C4979.06 5748.51 4980.58 5747.93 4981.73 5746.76L5179.45 5547.6L5570.69 5153.52V5151.04C5572.22 5151.04 5573.73 5150.46 5574.89 5149.3L5772.6 4950.14C5773.64 4949.1 5774.14 4947.76 5774.24 4946.4H5774.34C5774.34 4946.31 5774.3 4946.23 5774.29 4946.16C5774.3 4946.07 5774.34 4945.99 5774.34 4945.92H5774.24C5774.14 4944.55 5773.64 4943.21 5772.6 4942.17L5574.89 4743.01C5573.73 4741.85 5572.21 4741.27 5570.69 4741.27C5569.17 4741.27 5567.66 4741.85 5566.5 4743.01L5368.78 4942.17C5367.75 4943.21 5367.25 4944.55 5367.14 4945.92H5367.04C5367.04 4945.99 5367.09 4946.07 5367.09 4946.16C5367.09 4946.23 5367.04 4946.31 5367.04 4946.4H5367.14C5367.25 4947.76 5367.75 4949.1 5368.78 4950.14L5562.3 5145.07L5471.83 5236.2L5183.88 4946.16L5570.69 4556.53L5957.5 4946.16L5570.69 5335.78V5338.25C5569.17 5338.25 5567.66 5338.84 5566.5 5340L4977.53 5933.24L4590.49 5543.38L4680.97 5452.25ZM4878.68 5253.09L4969.15 5344.22L4779.82 5534.93L4689.35 5443.8L4878.68 5253.09ZM5166.87 5543.38L4977.53 5734.09L4788.21 5543.38L4977.53 5352.67L5166.87 5543.38ZM4977.53 5153.52L5265.73 5443.8L5175.26 5534.93L4981.73 5340L4887.07 5244.65L4977.53 5153.52ZM5076.4 5053.94L5364.59 5344.22L5274.11 5435.36L4985.92 5145.07L5076.4 5053.94ZM5175.26 4954.36L5463.45 5244.65L5372.98 5335.78L5084.79 5045.49L5175.26 4954.36ZM6357.37 3747.24C6356.21 3748.41 6355.63 3749.93 6355.63 3751.46H6353.17L5570.69 4539.64V4542.11C5569.17 4542.11 5567.66 4542.7 5566.5 4543.86L5171.06 4942.17C5170.03 4943.21 5169.53 4944.55 5169.42 4945.92H5166.87L4384.39 5734.09V5734.47L3991.11 6130.61C3989.95 6131.77 3989.37 6133.3 3989.37 6134.83H3986.92L3204.43 6923V6925.48C3202.92 6925.48 3201.4 6926.06 3200.24 6927.23L2804.8 7325.54C2803.65 7326.71 2803.06 7328.23 2803.06 7329.76H2817.38L3204.43 6939.9L3591.49 7329.76H3605.8C3605.8 7328.23 3605.22 7326.71 3604.06 7325.54L3212.82 6931.46L3303.3 6840.32L3789.2 7329.76H3805.97L4390.74 6740.74V6740.36L4981.73 6145.07C4982.89 6143.91 4983.47 6142.37 4983.47 6140.84H4985.92L5570.69 5551.83V5549.35C5572.22 5549.35 5573.73 5548.77 5574.89 5547.6L6168.04 4950.14C6169.07 4949.1 6169.57 4947.76 6169.69 4946.4H6172.24L6756.99 4357.38V4342.96C6755.48 4342.96 6753.96 4343.54 6752.8 4344.71L6163.85 4937.95L5677.94 4448.5L5768.41 4357.38L6159.65 4751.46C6160.81 4752.64 6162.32 4753.22 6163.85 4753.22C6165.37 4753.22 6166.88 4752.64 6168.04 4751.46L6756.99 4158.22V4143.8C6755.48 4143.8 6753.96 4144.38 6752.8 4145.55L6163.85 4738.79L5776.8 4348.93L5867.27 4257.8L5961.93 4353.15L6159.65 4552.31C6160.81 4553.48 6162.32 4554.06 6163.85 4554.06C6165.37 4554.06 6166.88 4553.48 6168.04 4552.31L6365.76 4353.15L6756.99 3959.07V3942.17L6567.67 3751.46L6756.99 3560.76V3546.33C6755.48 3546.33 6753.96 3546.92 6752.8 3548.08L6555.09 3747.24C6553.93 3748.41 6553.35 3749.93 6553.35 3751.46C6553.35 3752.99 6553.93 3754.52 6555.09 3755.69L6748.61 3950.62L6658.14 4041.75L6369.95 3751.46L6756.99 3361.6V3347.18C6755.48 3347.18 6753.96 3347.76 6752.8 3348.93L6357.37 3747.24Z" fill="#99C0E9"></path> </g> <g opacity="0.470001"> <path opacity="0.470001" d="M3204.43 4334.46V4336.94C3202.92 4336.94 3201.4 4337.52 3200.24 4338.69L2611.28 4931.93L2125.37 4442.48L2215.84 4351.36L2607.09 4745.44C2608.24 4746.62 2609.76 4747.2 2611.28 4747.2C2612.8 4747.2 2614.32 4746.62 2615.47 4745.44L3204.43 4152.2V4149.73C3205.96 4149.73 3207.47 4149.14 3208.63 4147.98L3604.06 3749.67C3605.22 3748.5 3605.8 3746.97 3605.8 3745.45C3605.8 3743.92 3605.22 3742.39 3604.06 3741.22L3212.82 3347.13L3303.3 3256L3789.2 3745.45L3204.43 4334.46ZM2018.13 5528.92V5528.94L1430.46 6120.87L944.549 5631.43L1035.03 5540.3L1426.27 5934.39C1427.42 5935.55 1428.94 5936.14 1430.46 5936.14C1431.98 5936.14 1433.49 5935.55 1434.66 5934.39L2023.61 5341.15V5341.12L2417.76 4944.12C2418.79 4943.08 2419.29 4941.74 2419.4 4940.38H2419.5C2419.5 4940.29 2419.45 4940.22 2419.45 4940.14C2419.45 4940.05 2419.5 4939.98 2419.5 4939.9H2419.4C2419.29 4938.53 2418.79 4937.19 2417.76 4936.15L2026.51 4542.06L2116.98 4450.93L2602.65 4940.14L2018.13 5528.92ZM837.308 6718.34V6720.81C835.789 6720.81 834.276 6721.4 833.113 6722.56L244.154 7315.81L-241.753 6826.37L-151.281 6735.24L239.959 7129.32C241.117 7130.49 242.636 7131.07 244.154 7131.07C245.678 7131.07 247.192 7130.49 248.344 7129.32L837.308 6536.08V6533.61C838.832 6533.61 840.345 6533.03 841.503 6531.86L1236.93 6133.54C1238.1 6132.38 1238.67 6130.85 1238.67 6129.32C1238.67 6127.8 1238.1 6126.27 1236.93 6125.1L845.698 5731.01L936.169 5639.88L1422.08 6129.32L837.308 6718.34ZM2023.6 5125.08L1834.52 4934.63L2018.14 4749.68L2207.22 4940.14L2023.6 5125.08ZM1133.88 5440.73L1228.55 5536.08L1426.27 5735.24C1427.42 5736.4 1428.94 5736.98 1430.46 5736.98C1431.98 5736.98 1433.49 5736.4 1434.66 5735.24L1632.37 5536.08L2023.61 5141.99V5141.97L2220.04 4944.12C2221.07 4943.08 2221.57 4941.74 2221.68 4940.38H2221.77C2221.77 4940.29 2221.73 4940.22 2221.73 4940.14C2221.73 4940.05 2221.77 4939.98 2221.77 4939.9H2221.68C2221.57 4938.53 2221.07 4937.19 2220.04 4936.15L2023.61 4738.3V4729.74C2022.1 4729.74 2020.58 4730.32 2019.42 4731.49L1821.7 4930.65C1820.66 4931.69 1820.17 4933.02 1820.06 4934.39H1819.97C1819.97 4934.47 1820.01 4934.54 1820.01 4934.63C1820.01 4934.71 1819.97 4934.79 1819.97 4934.87H1820.06C1820.17 4936.23 1820.66 4937.57 1821.7 4938.61L2015.23 5133.54L1924.75 5224.67L1636.8 4934.63L2018.14 4550.52L2404.93 4940.14L2018.13 5329.76V5329.78L1430.46 5921.72L1043.41 5531.85L1133.88 5440.73ZM1331.6 5241.57L1422.08 5332.7L1232.74 5523.41L1142.27 5432.28L1331.6 5241.57ZM1619.79 5531.85L1430.46 5722.56L1241.13 5531.85L1430.46 5341.15L1619.79 5531.85ZM1430.46 5141.99L1718.65 5432.28L1628.18 5523.41L1434.66 5328.48L1339.99 5233.12L1430.46 5141.99ZM1529.32 5042.41L1817.51 5332.7L1727.04 5423.83L1438.85 5133.54L1529.32 5042.41ZM1628.18 4942.84L1916.37 5233.12L1825.9 5324.25L1537.71 5033.97L1628.18 4942.84ZM3015.11 3745.45L3204.43 3554.74L3393.76 3745.45L3204.43 3936.15L3015.11 3745.45ZM2314.7 4251.78L2409.37 4347.14L2607.09 4546.29C2608.24 4547.46 2609.76 4548.04 2611.28 4548.04C2612.8 4548.04 2614.32 4547.46 2615.47 4546.29L2813.19 4347.14L3204.43 3953.05V3950.57C3205.96 3950.57 3207.47 3949.99 3208.63 3948.82L3406.34 3749.67C3407.5 3748.5 3408.08 3746.97 3408.08 3745.45C3408.08 3743.92 3407.5 3742.39 3406.34 3741.22L3208.63 3542.06C3207.47 3540.9 3205.95 3540.31 3204.43 3540.31C3202.92 3540.31 3201.4 3540.9 3200.24 3542.06L3002.52 3741.22C3001.36 3742.39 3000.78 3743.92 3000.78 3745.45C3000.78 3746.97 3001.36 3748.5 3002.52 3749.67L3196.04 3944.6L3105.57 4035.73L2817.38 3745.45L3204.43 3355.58L3591.48 3745.45L3204.43 4135.31V4137.78C3202.92 4137.78 3201.4 4138.36 3200.24 4139.53L2611.28 4732.77L2224.23 4342.91L2314.7 4251.78ZM2512.42 4052.62L2602.89 4143.76L2413.56 4334.46L2323.09 4243.33L2512.42 4052.62ZM2800.61 4342.91L2611.28 4533.62L2421.95 4342.91L2611.28 4152.2L2800.61 4342.91ZM2611.28 3953.05L2899.47 4243.33L2809 4334.46L2615.47 4139.53L2520.81 4044.18L2611.28 3953.05ZM2710.14 3853.47L2998.33 4143.76L2907.85 4234.88L2619.67 3944.6L2710.14 3853.47ZM2809 3753.89L3097.19 4044.18L3006.72 4135.31L2718.53 3845.02L2809 3753.89ZM730.061 6428.05L639.59 6519.19L351.401 6228.9L441.872 6137.77L730.061 6428.05ZM647.98 6129.32L837.308 5938.62L1026.64 6129.32L837.308 6320.03L647.98 6129.32ZM3698.73 2857.69L3789.2 2948.82L3599.86 3139.53L3509.4 3048.4L3698.73 2857.69ZM3797.59 2758.11L4085.78 3048.4L3995.31 3139.53L3801.78 2944.6L3707.12 2849.24L3797.59 2758.11ZM3896.44 2658.54L4184.63 2948.82L4094.17 3039.95L3805.98 2749.67L3896.44 2658.54ZM3995.31 2558.96L4283.49 2849.24L4193.02 2940.37L3904.83 2650.09L3995.31 2558.96ZM3797.59 3338.68L3608.25 3147.97L3797.59 2957.27L3986.92 3147.97L3797.59 3338.68ZM4969.15 2556.53L4384.39 3145.55V3145.93L3797.59 3736.99L3311.68 3247.55L3402.15 3156.42L3793.39 3550.51C3794.55 3551.68 3796.06 3552.26 3797.59 3552.26C3799.11 3552.26 3800.62 3551.68 3801.78 3550.51L4390.74 2957.27V2956.89L4784.02 2560.75C4785.17 2559.59 4785.76 2558.06 4785.76 2556.53H4771.43L4384.39 2946.39V2946.77L3797.59 3537.84L3410.54 3147.97L3501.01 3056.85L3595.67 3152.2L3793.39 3351.35C3794.55 3352.53 3796.06 3353.11 3797.59 3353.11C3799.11 3353.11 3800.62 3352.53 3801.78 3351.35L3999.5 3152.2L4390.74 2758.11V2757.73L4586.3 2560.75C4587.46 2559.59 4588.04 2558.06 4588.04 2556.53H4573.71L4390.55 2741.03L4201.41 2550.51H4187.09C4187.09 2552.04 4187.67 2553.57 4188.83 2554.74L4382.36 2749.67L4291.88 2840.8L4003.69 2550.51H3986.92L3204.43 3338.68V3341.16C3202.92 3341.16 3201.4 3341.74 3200.24 3342.91L2804.8 3741.22C2803.65 3742.39 2803.06 3743.92 2803.06 3745.45H2800.61L2018.13 4533.62V4533.64L1623.98 4930.65C1622.95 4931.69 1622.45 4933.02 1622.34 4934.39H1619.79L837.308 5722.56V5725.03C835.789 5725.03 834.276 5725.62 833.113 5726.79L437.682 6125.1C436.52 6126.27 435.943 6127.8 435.943 6129.32H433.487L107.242 6457.94H124.017L145.298 6436.5L166.574 6457.94H183.349L153.683 6428.05L244.154 6336.92L364.292 6457.94H381.067L252.54 6328.48L343.016 6237.35L631.205 6527.63L564.365 6594.96C564.385 6595.38 564.43 6595.79 564.45 6596.21C564.686 6601.61 564.511 6606.94 564.025 6612.2L837.308 6336.92V6334.45C838.832 6334.45 840.345 6333.87 841.503 6332.7L1039.22 6133.54C1040.38 6132.38 1040.95 6130.85 1040.95 6129.32C1040.95 6127.8 1040.38 6126.27 1039.22 6125.1L841.503 5925.94C840.345 5924.77 838.827 5924.19 837.308 5924.19C835.789 5924.19 834.276 5924.77 833.113 5925.94L635.395 6125.1C634.237 6126.27 633.656 6127.8 633.656 6129.32C633.656 6130.85 634.237 6132.38 635.395 6133.54L828.918 6328.48L738.446 6419.61L450.257 6129.32L837.308 5739.46L1224.36 6129.32L837.308 6519.19V6521.66C835.789 6521.66 834.276 6522.24 833.113 6523.41L244.154 7116.65L-135.258 6734.48H-167.304L-348.999 6917.49V6934.39L38.0466 7324.26H52.3707C52.3707 7322.73 51.7894 7321.2 50.6316 7320.03L-340.609 6925.95L-250.143 6834.81L235.769 7324.26H252.54L837.308 6735.24V6732.77C838.832 6732.77 840.345 6732.18 841.503 6731.02L1434.66 6133.54C1435.81 6132.38 1436.39 6130.85 1436.39 6129.32H1438.85L2023.61 5540.3V5540.29L2615.47 4944.12C2616.51 4943.08 2617.01 4941.74 2617.11 4940.38H2619.67L3204.43 4351.36V4348.88C3205.96 4348.88 3207.47 4348.3 3208.63 4347.14L3801.78 3749.67C3802.94 3748.5 3803.52 3746.97 3803.52 3745.45H3805.98L4390.74 3156.42V3156.05L4981.73 2560.75C4982.89 2559.59 4983.47 2558.06 4983.47 2556.53H4969.15Z" fill="#99C0E9"></path> </g> <g opacity="0.470001"> <path opacity="0.470001" d="M2018.13 6723.86L1430.46 7315.8L944.553 6826.37L1035.03 6735.23L1426.27 7129.32C1427.43 7130.49 1428.94 7131.07 1430.46 7131.07C1431.98 7131.07 1433.5 7130.49 1434.66 7129.32L2023.61 6536.08V6536.06L2417.76 6139.05C2418.91 6137.89 2419.5 6136.36 2419.5 6134.83C2419.5 6133.3 2418.91 6131.77 2417.76 6130.6L2026.52 5736.52L2116.99 5645.39L2602.89 6134.83L2018.13 6723.84V6723.86ZM2023.6 6320.02L1834.28 6129.32L2018.14 5944.13L2207.45 6134.83L2023.6 6320.02ZM1133.88 6635.66L1228.55 6731.01L1426.27 6930.17C1427.43 6931.33 1428.94 6931.92 1430.46 6931.92C1431.98 6931.92 1433.5 6931.33 1434.66 6930.17L1632.37 6731.01L2023.61 6336.92V6336.91L2220.04 6139.05C2221.2 6137.89 2221.78 6136.36 2221.78 6134.83C2221.78 6133.3 2221.2 6131.77 2220.04 6130.6L2023.61 5932.75V5924.19C2022.1 5924.19 2020.58 5924.77 2019.42 5925.94L1821.71 6125.1C1820.54 6126.27 1819.97 6127.8 1819.97 6129.32C1819.97 6130.85 1820.54 6132.38 1821.71 6133.54L2015.23 6328.48L1924.75 6419.61L1636.56 6129.32L2018.14 5744.98L2405.18 6134.83L2018.13 6524.69V6524.71L1430.46 7116.65L1043.41 6726.79L1133.88 6635.66ZM1331.6 6436.5L1422.08 6527.63L1232.74 6718.34L1142.27 6627.21L1331.6 6436.5ZM1619.79 6726.79L1430.46 6917.49L1241.13 6726.79L1430.46 6536.08L1619.79 6726.79ZM1430.46 6336.92L1718.65 6627.21L1628.18 6718.34L1434.66 6523.41L1339.99 6428.05L1430.46 6336.92ZM1529.32 6237.35L1817.51 6527.63L1727.04 6618.76L1438.85 6328.48L1529.32 6237.35ZM1628.18 6137.77L1916.37 6428.05L1825.9 6519.19L1537.71 6228.9L1628.18 6137.77ZM2215.84 5545.81L2607.09 5939.9C2608.24 5941.06 2609.76 5941.65 2611.28 5941.65C2612.8 5941.65 2614.32 5941.06 2615.47 5939.9L3204.43 5346.65V5344.18C3205.96 5344.18 3207.47 5343.6 3208.63 5342.43L3604.06 4944.12C3605.1 4943.08 3605.59 4941.74 3605.71 4940.38H3605.8C3605.8 4940.29 3605.76 4940.22 3605.76 4940.14C3605.76 4940.05 3605.8 4939.98 3605.8 4939.89H3605.71C3605.59 4938.53 3605.1 4937.19 3604.06 4936.15L3212.82 4542.06L3303.29 4450.93L3788.96 4940.14L3204.43 5528.91V5531.38C3202.92 5531.38 3201.4 5531.97 3200.24 5533.14L2611.28 6126.38L2125.37 5636.94L2215.84 5545.81ZM3015.34 4940.14L3204.43 4749.67L3393.52 4940.14L3204.43 5130.6L3015.34 4940.14ZM2314.7 5446.23L2409.37 5541.59L2607.09 5740.74C2608.24 5741.91 2609.76 5742.49 2611.28 5742.49C2612.8 5742.49 2614.32 5741.91 2615.47 5740.74L2813.19 5541.59L3204.43 5147.5V5145.03C3205.96 5145.03 3207.47 5144.44 3208.63 5143.27L3406.34 4944.12C3407.38 4943.08 3407.88 4941.74 3407.99 4940.38H3408.08C3408.08 4940.29 3408.04 4940.22 3408.03 4940.14C3408.04 4940.05 3408.08 4939.98 3408.08 4939.89H3407.99C3407.88 4938.53 3407.38 4937.19 3406.34 4936.15L3208.63 4736.99C3207.47 4735.83 3205.95 4735.24 3204.43 4735.24C3202.92 4735.24 3201.4 4735.83 3200.24 4736.99L3002.52 4936.15C3001.49 4937.19 3000.99 4938.53 3000.88 4939.89H3000.79C3000.79 4939.98 3000.83 4940.05 3000.83 4940.14C3000.83 4940.22 3000.79 4940.29 3000.79 4940.38H3000.88C3000.99 4941.74 3001.49 4943.08 3002.52 4944.12L3196.05 5139.05L3105.58 5230.18L2817.63 4940.14L3204.43 4550.51L3591.24 4940.14L3204.43 5329.76V5332.23C3202.92 5332.23 3201.4 5332.81 3200.24 5333.98L2611.28 5927.22L2224.23 5537.36L2314.7 5446.23ZM2512.42 5247.08L2602.89 5338.2L2413.56 5528.91L2323.09 5437.78L2512.42 5247.08ZM2800.61 5537.36L2611.28 5728.07L2421.95 5537.36L2611.28 5346.65L2800.61 5537.36ZM2611.28 5147.5L2899.47 5437.78L2809 5528.91L2615.47 5333.98L2520.81 5238.63L2611.28 5147.5ZM2710.14 5047.92L2998.32 5338.2L2907.86 5429.33L2619.67 5139.05L2710.14 5047.92ZM2809 4948.34L3097.19 5238.63L3006.71 5329.76L2718.53 5039.47L2809 4948.34ZM3402.15 4351.36L3793.39 4745.44C3794.55 4746.61 3796.06 4747.19 3797.59 4747.19C3799.11 4747.19 3800.62 4746.61 3801.78 4745.44L4390.74 4152.2V4151.82L4784.01 3755.69C4785.17 3754.52 4785.75 3752.99 4785.75 3751.46C4785.75 3749.93 4785.17 3748.4 4784.01 3747.24L4392.77 3353.15L4483.25 3262.02L4969.15 3751.46L4384.38 4340.48V4340.86L3797.59 4931.93L3311.68 4442.49L3402.15 4351.36ZM4384.57 3560.94L4573.72 3751.46L4390.55 3935.96L4201.41 3745.44L4384.57 3560.94ZM3501.01 4251.78L3595.67 4347.14L3793.39 4546.29C3794.55 4547.46 3796.06 4548.04 3797.59 4548.04C3799.11 4548.04 3800.62 4547.46 3801.78 4546.29L3999.5 4347.14L4390.74 3953.04V3952.67L4586.3 3755.69C4587.46 3754.52 4588.04 3752.99 4588.04 3751.46C4588.04 3749.93 4587.46 3748.4 4586.3 3747.24L4390.74 3550.26V3540.31C4389.22 3540.31 4387.7 3540.9 4386.54 3542.06L4188.83 3741.22C4187.67 3742.38 4187.09 3743.91 4187.09 3745.44C4187.09 3746.97 4187.67 3748.5 4188.83 3749.66L4382.35 3944.59L4291.88 4035.73L4003.69 3745.44L4384.57 3361.79L4771.43 3751.46L4384.38 4141.32V4141.7L3797.59 4732.78L3410.54 4342.91L3501.01 4251.78ZM3698.72 4052.62L3789.2 4143.75L3599.87 4334.46L3509.4 4243.33L3698.72 4052.62ZM3986.91 4342.91L3797.59 4533.62L3608.26 4342.91L3797.59 4152.2L3986.91 4342.91ZM3797.59 3953.04L4085.77 4243.33L3995.3 4334.46L3801.78 4139.53L3707.11 4044.17L3797.59 3953.04ZM3896.45 3853.47L4184.64 4143.75L4094.17 4234.88L3805.98 3944.59L3896.45 3853.47ZM3995.3 3753.89L4283.49 4044.17L4193.02 4135.3L3904.83 3845.02L3995.3 3753.89ZM4878.68 2863.71L4969.15 2954.84L4779.82 3145.55L4689.35 3054.41L4878.68 2863.71ZM4977.54 2764.13L5265.73 3054.41L5175.26 3145.55L4981.73 2950.61L4887.07 2855.26L4977.54 2764.13ZM5076.39 2664.55L5364.58 2954.84L5274.12 3045.97L4985.93 2755.68L5076.39 2664.55ZM5175.26 2564.98L5463.44 2855.26L5372.97 2946.39L5084.78 2656.1L5175.26 2564.98ZM4977.54 3344.7L4788.2 3153.99L4977.54 2963.29L5166.87 3153.99L4977.54 3344.7ZM2023.61 6735.22L2615.47 6139.05C2616.63 6137.89 2617.21 6136.36 2617.21 6134.83H2619.67L3204.43 5545.81V5543.33C3205.96 5543.33 3207.47 5542.75 3208.63 5541.59L3801.78 4944.12C3802.81 4943.08 3803.31 4941.74 3803.42 4940.38H3805.98L4390.74 4351.36V4350.98L4981.73 3755.69C4982.89 3754.52 4983.47 3752.99 4983.47 3751.46H4985.93L5570.69 3162.44V3159.97C5572.21 3159.97 5573.73 3159.39 5574.89 3158.22L6168.04 2560.75C6169.2 2559.59 6169.78 2558.06 6169.78 2556.53H6155.45L5570.69 3145.55V3148.02C5569.18 3148.02 5567.66 3148.6 5566.5 3149.77L4977.54 3743.01L4491.64 3253.57L4582.1 3162.44L4973.35 3556.53C4974.5 3557.7 4976.02 3558.28 4977.54 3558.28C4979.06 3558.28 4980.58 3557.7 4981.73 3556.53L5570.69 2963.29V2960.81C5572.21 2960.81 5573.73 2960.23 5574.89 2959.06L5970.32 2560.75C5971.48 2559.59 5972.06 2558.06 5972.06 2556.53H5957.74L5570.69 2946.39V2948.87C5569.18 2948.87 5567.66 2949.45 5566.5 2950.61L4977.54 3543.86L4590.49 3153.99L4680.96 3062.86L4775.63 3158.22L4973.35 3357.37C4974.5 3358.54 4976.02 3359.12 4977.54 3359.12C4979.06 3359.12 4980.58 3358.54 4981.73 3357.37L5179.45 3158.22L5570.69 2764.13V2761.66C5572.21 2761.66 5573.73 2761.07 5574.89 2759.91L5772.6 2560.75C5773.76 2559.59 5774.34 2558.06 5774.34 2556.53H5760.02L5570.69 2747.24L5381.36 2556.53H5367.04C5367.04 2558.06 5367.62 2559.59 5368.78 2560.75L5562.31 2755.68L5471.83 2846.81L5183.65 2556.53H5166.87L4384.38 3344.7V3345.08L3991.11 3741.22C3989.95 3742.38 3989.37 3743.91 3989.37 3745.44H3986.91L3204.43 4533.62V4536.09C3202.92 4536.09 3201.4 4536.67 3200.24 4537.84L2804.8 4936.15C2803.77 4937.19 2803.27 4938.53 2803.16 4939.89H2800.61L2018.13 5728.07V5728.09L1623.98 6125.1C1622.83 6126.27 1622.25 6127.8 1622.25 6129.32H1619.79L837.307 6917.49V6919.97C835.793 6919.97 834.274 6920.55 833.112 6921.72L437.681 7320.03C436.523 7321.2 435.942 7322.73 435.942 7324.25H450.261L837.307 6934.39L1224.36 7324.25H1238.67C1238.67 7322.73 1238.1 7321.2 1236.94 7320.03L845.697 6925.94L936.168 6834.81L1422.08 7324.25H1438.85L2023.61 6735.23V6735.22Z" fill="#99C0E9"></path> </g> <g opacity="0.470001"> <path opacity="0.470001" d="M-241.752 4436.98L-151.28 4345.85L239.96 4739.94C241.118 4741.11 242.637 4741.69 244.155 4741.69C245.679 4741.69 247.193 4741.11 248.345 4739.94L837.309 4146.7V4144.22C838.832 4144.22 840.341 4143.64 841.504 4142.47L1236.93 3744.16C1238.1 3742.99 1238.67 3741.46 1238.67 3739.94C1238.67 3738.41 1238.1 3736.88 1236.93 3735.71L845.699 3341.62L936.17 3250.49L1422.08 3739.94L837.309 4328.96V4331.43C835.79 4331.43 834.272 4332.01 833.114 4333.18L244.155 4926.42L-241.752 4436.98ZM647.981 3739.94L837.309 3549.23L1026.64 3739.94L837.309 3930.64L647.981 3739.94ZM-52.4238 4246.27L42.2425 4341.63L239.96 4540.78C241.118 4541.95 242.637 4542.53 244.155 4542.53C245.679 4542.53 247.193 4541.95 248.345 4540.78L446.063 4341.63L837.309 3947.54V3945.07C838.832 3945.07 840.341 3944.48 841.504 3943.32L1039.22 3744.16C1040.37 3742.99 1040.96 3741.46 1040.96 3739.94C1040.96 3738.41 1040.37 3736.88 1039.22 3735.71L841.504 3536.56C840.341 3535.39 838.827 3534.81 837.309 3534.81C835.79 3534.81 834.272 3535.39 833.114 3536.56L635.396 3735.71C634.238 3736.88 633.657 3738.41 633.657 3739.94C633.657 3741.46 634.238 3742.99 635.396 3744.16L828.919 3939.09L738.447 4030.22L450.258 3739.94L837.309 3350.07L1224.36 3739.94L837.309 4129.8V4132.27C835.79 4132.27 834.272 4132.86 833.114 4134.02L244.155 4727.27L-142.89 4337.4L-52.4238 4246.27ZM145.299 4047.12L235.765 4138.25L46.4376 4328.96L-44.0338 4237.83L145.299 4047.12ZM433.488 4337.4L244.155 4528.11L54.8226 4337.4L244.155 4146.7L433.488 4337.4ZM244.155 3947.54L532.345 4237.83L441.868 4328.96L248.345 4134.02L153.679 4038.67L244.155 3947.54ZM343.012 3847.96L631.206 4138.25L540.73 4229.38L252.54 3939.09L343.012 3847.96ZM441.868 3748.39L730.057 4038.67L639.591 4129.8L351.402 3839.52L441.868 3748.39ZM1331.6 2852.18L1422.08 2943.31L1232.74 3134.02L1142.27 3042.89L1331.6 2852.18ZM1430.46 2752.61L1718.65 3042.89L1628.18 3134.02L1434.65 2939.09L1339.99 2843.74L1430.46 2752.61ZM1529.32 2653.03L1817.51 2943.31L1727.04 3034.44L1438.85 2744.16L1529.32 2653.03ZM1628.18 2553.45L1916.37 2843.74L1825.9 2934.87L1537.71 2644.58L1628.18 2553.45ZM1430.46 3333.18L1241.13 3142.47L1430.46 2951.76L1619.79 3142.47L1430.46 3333.18ZM248.345 4938.61C249.383 4937.57 249.884 4936.23 249.989 4934.87H252.54L837.309 4345.85V4343.38C838.832 4343.38 840.341 4342.79 841.504 4341.63L1434.65 3744.16C1435.82 3742.99 1436.39 3741.46 1436.39 3739.94H1438.85L2023.61 3150.92V3150.9L2615.47 2554.73C2616.63 2553.57 2617.21 2552.04 2617.21 2550.51H2602.89L2018.13 3139.53V3139.54L1430.46 3731.48L944.55 3242.05L1035.03 3150.92L1426.27 3545C1427.43 3546.17 1428.94 3546.76 1430.46 3546.76C1431.98 3546.76 1433.49 3546.17 1434.65 3545L2023.61 2951.76V2951.74L2417.76 2554.73C2418.91 2553.57 2419.5 2552.04 2419.5 2550.51H2405.17L2018.13 2940.37V2940.39L1430.46 3532.33L1043.41 3142.47L1133.88 3051.34L1228.54 3146.69L1426.27 3345.85C1427.43 3347.02 1428.94 3347.6 1430.46 3347.6C1431.98 3347.6 1433.49 3347.02 1434.65 3345.85L1632.38 3146.69L2023.61 2752.61V2752.59L2220.04 2554.73C2221.2 2553.57 2221.77 2552.04 2221.77 2550.51H2207.46L2023.6 2735.7L1834.28 2545H1819.96C1819.96 2546.53 1820.55 2548.06 1821.7 2549.23L2015.23 2744.16L1924.75 2835.29L1636.57 2545H1619.79L837.309 3333.18V3335.65C835.79 3335.65 834.272 3336.23 833.114 3337.4L437.683 3735.71C436.52 3736.88 435.944 3738.41 435.944 3739.94H433.488L-348.998 4528.11V4545L37.8069 4934.63L-348.998 5324.25V5338.67C-347.479 5338.67 -345.961 5338.09 -344.808 5336.93L50.6326 4938.61C51.6651 4937.57 52.1663 4936.23 52.2766 4934.87H52.3718C52.3718 4934.78 52.3266 4934.71 52.3216 4934.63C52.3266 4934.55 52.3718 4934.47 52.3718 4934.39H52.2766C52.1663 4933.03 51.6651 4931.68 50.6326 4930.64L-340.613 4536.56L-250.142 4445.43L235.53 4934.63L-348.998 5523.41V5537.83C-347.479 5537.83 -345.961 5537.24 -344.808 5536.08L248.345 4938.61Z" fill="#99C0E9"></path> </g> <g opacity="0.470001"> <path opacity="0.470001" d="M2018.13 4334.46V4334.48L1430.46 4926.42L944.553 4436.98L1035.03 4345.85L1426.27 4739.94C1427.43 4741.11 1428.94 4741.69 1430.46 4741.69C1431.98 4741.69 1433.5 4741.11 1434.66 4739.94L2023.61 4146.69V4146.67L2417.76 3749.67C2418.91 3748.5 2419.5 3746.97 2419.5 3745.44C2419.5 3743.92 2418.91 3742.39 2417.76 3741.22L2026.52 3347.13L2116.99 3256L2602.89 3745.44L2018.13 4334.46ZM837.307 5523.41V5525.88C835.793 5525.88 834.275 5526.46 833.112 5527.63L244.158 6120.87L-241.753 5631.43L-151.282 5540.3L239.963 5934.39C241.116 5935.55 242.635 5936.14 244.158 5936.14C245.677 5936.14 247.191 5935.55 248.348 5934.39L837.307 5341.14V5338.68C838.831 5338.68 840.344 5338.09 841.502 5336.92L1236.94 4938.61C1237.98 4937.57 1238.47 4936.23 1238.58 4934.87H1238.67C1238.67 4934.79 1238.63 4934.71 1238.63 4934.63C1238.63 4934.54 1238.67 4934.47 1238.67 4934.39H1238.58C1238.47 4933.02 1237.98 4931.69 1236.94 4930.65L845.697 4536.55L936.168 4445.43L1421.83 4934.63L837.307 5523.41ZM648.22 4934.63L837.307 4744.16L1026.4 4934.63L837.307 5125.09L648.22 4934.63ZM-52.4207 5440.73L42.2457 5536.08L239.963 5735.24C241.116 5736.4 242.635 5736.98 244.158 5736.98C245.677 5736.98 247.191 5736.4 248.348 5735.24L446.066 5536.08L837.307 5141.99V5139.52C838.831 5139.52 840.344 5138.94 841.502 5137.77L1039.22 4938.61C1040.26 4937.57 1040.75 4936.23 1040.87 4934.87H1040.95C1040.95 4934.79 1040.91 4934.71 1040.91 4934.63C1040.91 4934.54 1040.95 4934.47 1040.95 4934.39H1040.87C1040.75 4933.02 1040.26 4931.69 1039.22 4930.65L841.502 4731.49C840.344 4730.32 838.826 4729.74 837.307 4729.74C835.793 4729.74 834.275 4730.32 833.112 4731.49L635.394 4930.65C634.362 4931.69 633.865 4933.02 633.75 4934.39H633.66C633.66 4934.47 633.7 4934.54 633.705 4934.63C633.7 4934.71 633.66 4934.79 633.66 4934.87H633.75C633.865 4936.23 634.362 4937.57 635.394 4938.61L828.922 5133.54L738.451 5224.67L450.502 4934.63L837.307 4545.01L1224.12 4934.63L837.307 5324.25V5326.73C835.793 5326.73 834.275 5327.31 833.112 5328.48L244.158 5921.71L-142.892 5531.85L-52.4207 5440.73ZM145.297 5241.57L235.768 5332.7L46.4357 5523.41L-44.0307 5432.28L145.297 5241.57ZM433.486 5531.85L244.158 5722.56L54.8208 5531.85L244.158 5341.14L433.486 5531.85ZM244.158 5141.99L532.348 5432.28L441.871 5523.41L248.348 5328.48L153.682 5233.12L244.158 5141.99ZM343.015 5042.41L631.204 5332.7L540.733 5423.83L252.544 5133.54L343.015 5042.41ZM441.871 4942.84L730.06 5233.12L639.589 5324.25L351.4 5033.97L441.871 4942.84ZM2023.6 3930.63L1834.28 3739.94L2018.14 3554.74L2207.45 3745.44L2023.6 3930.63ZM1133.88 4246.27L1228.55 4341.63L1426.27 4540.78C1427.43 4541.95 1428.94 4542.53 1430.46 4542.53C1431.98 4542.53 1433.5 4541.95 1434.66 4540.78L1632.37 4341.63L2023.61 3947.54V3947.52L2220.04 3749.67C2221.2 3748.5 2221.78 3746.97 2221.78 3745.44C2221.78 3743.92 2221.2 3742.39 2220.04 3741.22L2023.61 3543.37V3534.8C2022.1 3534.8 2020.58 3535.39 2019.42 3536.56L1821.71 3735.71C1820.54 3736.88 1819.97 3738.41 1819.97 3739.94C1819.97 3741.47 1820.54 3742.99 1821.71 3744.16L2015.23 3939.09L1924.75 4030.22L1636.56 3739.94L2018.14 3355.59L2405.18 3745.44L2018.13 4135.31V4135.33L1430.46 4727.27L1043.41 4337.4L1133.88 4246.27ZM1331.6 4047.12L1422.08 4138.25L1232.74 4328.95L1142.27 4237.82L1331.6 4047.12ZM1619.79 4337.4L1430.46 4528.11L1241.13 4337.4L1430.46 4146.69L1619.79 4337.4ZM1430.46 3947.54L1718.65 4237.82L1628.18 4328.95L1434.66 4134.02L1339.99 4038.67L1430.46 3947.54ZM1529.32 3847.96L1817.51 4138.25L1727.04 4229.38L1438.85 3939.09L1529.32 3847.96ZM1628.18 3748.38L1916.37 4038.67L1825.9 4129.8L1537.71 3839.51L1628.18 3748.38ZM2512.42 2857.69L2602.89 2948.82L2413.56 3139.53L2323.09 3048.4L2512.42 2857.69ZM2611.28 2758.11L2899.47 3048.4L2809 3139.53L2615.47 2944.6L2520.81 2849.24L2611.28 2758.11ZM2710.14 2658.54L2998.32 2948.82L2907.86 3039.95L2619.67 2749.67L2710.14 2658.54ZM2809 2558.96L3097.19 2849.24L3006.71 2940.37L2718.53 2650.09L2809 2558.96ZM2611.28 3338.68L2421.95 3147.97L2611.28 2957.27L2800.61 3147.97L2611.28 3338.68ZM3789.2 2550.51L3204.43 3139.53V3142C3202.92 3142 3201.4 3142.59 3200.24 3143.75L2611.28 3736.99L2125.37 3247.55L2215.84 3156.42L2607.09 3550.51C2608.24 3551.68 2609.76 3552.26 2611.28 3552.26C2612.8 3552.26 2614.32 3551.68 2615.47 3550.51L3204.43 2957.27V2954.79C3205.96 2954.79 3207.47 2954.21 3208.63 2953.05L3604.06 2554.74C3605.22 2553.56 3605.8 2552.04 3605.8 2550.51H3591.48L3204.43 2940.37V2942.84C3202.92 2942.84 3201.4 2943.43 3200.24 2944.6L2611.28 3537.84L2224.23 3147.97L2314.7 3056.85L2409.37 3152.2L2607.09 3351.35C2608.24 3352.52 2609.76 3353.11 2611.28 3353.11C2612.8 3353.11 2614.32 3352.52 2615.47 3351.35L2813.19 3152.2L3204.43 2758.11V2755.64C3205.96 2755.64 3207.47 2755.05 3208.63 2753.89L3406.34 2554.74C3407.5 2553.56 3408.08 2552.04 3408.08 2550.51H3393.77L3204.43 2741.21L3015.11 2550.51H3000.79C3000.79 2552.04 3001.36 2553.56 3002.52 2554.74L3196.05 2749.67L3105.58 2840.8L2817.39 2550.51H2800.61L2018.13 3338.68V3338.7L1623.98 3735.71C1622.83 3736.88 1622.25 3738.41 1622.25 3739.94H1619.79L837.307 4528.11V4530.59C835.793 4530.59 834.275 4531.17 833.112 4532.33L437.681 4930.65C436.644 4931.69 436.143 4933.02 436.037 4934.39H433.486L-349 5722.56V5739.46L38.0506 6129.32L-288.19 6457.93H-271.414L50.6306 6133.54C51.7884 6132.38 52.3698 6130.85 52.3698 6129.32C52.3698 6127.8 51.7884 6126.27 50.6306 6125.1L-340.61 5731.01L-250.139 5639.88L235.768 6129.32L-90.4768 6457.93H-73.6967L248.348 6133.54C249.506 6132.38 250.083 6130.85 250.083 6129.32H252.544L837.307 5540.3V5537.83C838.831 5537.83 840.344 5537.25 841.502 5536.08L1434.66 4938.61C1435.69 4937.57 1436.19 4936.23 1436.3 4934.87H1438.85L2023.61 4345.85V4345.83L2615.47 3749.67C2616.63 3748.5 2617.21 3746.97 2617.21 3745.44H2619.67L3204.43 3156.42V3153.95C3205.96 3153.95 3207.47 3153.37 3208.63 3152.2L3801.78 2554.74C3802.94 2553.56 3803.52 2552.04 3803.52 2550.51H3789.2Z" fill="#99C0E9"></path> </g> <g opacity="0.470001"> <path opacity="0.470001" d="M145.298 2852.18L235.769 2943.31L46.4366 3134.02L-44.0297 3042.89L145.298 2852.18ZM244.159 2752.61L532.349 3042.89L441.872 3134.02L248.35 2939.09L153.683 2843.74L244.159 2752.61ZM343.011 2653.03L631.205 2943.31L540.729 3034.44L252.54 2744.16L343.011 2653.03ZM441.872 2553.45L730.061 2843.74L639.59 2934.87L351.401 2644.58L441.872 2553.45ZM244.159 3333.18L54.8217 3142.47L244.159 2951.76L433.487 3142.47L244.159 3333.18ZM248.35 3744.16C249.507 3742.99 250.084 3741.46 250.084 3739.93H252.54L837.308 3150.92V3148.44C838.832 3148.44 840.345 3147.86 841.503 3146.69L1434.66 2549.23C1435.81 2548.06 1436.4 2546.53 1436.4 2545H1422.08L837.308 3134.02V3136.49C835.794 3136.49 834.276 3137.08 833.113 3138.25L244.159 3731.48L-241.753 3242.05L-151.281 3150.92L239.964 3545C241.117 3546.17 242.636 3546.76 244.159 3546.76C245.678 3546.76 247.192 3546.17 248.35 3545L837.308 2951.76V2949.29C838.832 2949.29 840.345 2948.7 841.503 2947.54L1236.94 2549.23C1238.1 2548.06 1238.67 2546.53 1238.67 2545H1224.36L837.308 2934.87V2937.34C835.794 2937.34 834.276 2937.92 833.113 2939.09L244.159 3532.33L-142.891 3142.47L-52.4198 3051.34L42.2416 3146.69L239.964 3345.85C241.117 3347.01 242.636 3347.6 244.159 3347.6C245.678 3347.6 247.192 3347.01 248.35 3345.85L446.067 3146.69L837.308 2752.61V2750.13C838.832 2750.13 840.345 2749.55 841.503 2748.38L1039.22 2549.23C1040.38 2548.06 1040.95 2546.53 1040.95 2545H1026.64L837.308 2735.71L647.98 2545H633.656C633.656 2546.53 634.242 2548.06 635.395 2549.23L828.918 2744.16L738.452 2835.28L450.262 2545H433.487L-348.999 3333.18V3350.07L38.0516 3739.93L-348.999 4129.8V4144.22C-347.475 4144.22 -345.962 4143.64 -344.804 4142.47L50.6317 3744.16C51.7894 3742.99 52.3708 3741.46 52.3708 3739.93C52.3708 3738.4 51.7894 3736.88 50.6317 3735.71L-340.609 3341.62L-250.138 3250.49L235.769 3739.93L-348.999 4328.96V4343.38C-347.475 4343.38 -345.962 4342.79 -344.804 4341.63L248.35 3744.16Z" fill="#99C0E9"></path> </g> </g> </g> <g clip-path="url(#clip1)"> <g opacity="0.470001"> <g opacity="0.470001"> <path opacity="0.470001" d="M6155.46 751.46L5570.69 1340.48V1342.96C5569.17 1342.96 5567.66 1343.54 5566.5 1344.71L4977.53 1937.95L4491.63 1448.5L4582.1 1357.38L4973.35 1751.46C4974.5 1752.64 4976.02 1753.22 4977.53 1753.22C4979.06 1753.22 4980.58 1752.64 4981.73 1751.46L5570.69 1158.22V1155.75C5572.22 1155.75 5573.73 1155.16 5574.89 1154L5970.32 755.686C5971.48 754.519 5972.06 752.99 5972.06 751.46C5972.06 749.93 5971.48 748.406 5970.32 747.24L5579.08 353.148L5669.55 262.019L6155.46 751.46ZM3797.59 3126.38L3311.68 2636.94L3402.15 2545.81L3793.39 2939.9C3794.55 2941.06 3796.06 2941.65 3797.59 2941.65C3799.11 2941.65 3800.62 2941.06 3801.78 2939.9L4390.74 2346.65V2346.27L4784.02 1950.14C4785.05 1949.1 4785.55 1947.76 4785.66 1946.39H4785.76C4785.76 1946.31 4785.71 1946.23 4785.71 1946.16C4785.71 1946.07 4785.76 1945.99 4785.76 1945.92H4785.66C4785.55 1944.55 4785.05 1943.21 4784.02 1942.17L4392.78 1548.08L4483.24 1456.95L4968.91 1946.16L4384.39 2534.93V2535.32L3797.59 3126.38ZM3204.43 3723.84V3726.32C3202.92 3726.32 3201.4 3726.9 3200.24 3728.07L2611.28 4321.31L2125.37 3831.87L2215.84 3740.74L2607.09 4134.83C2608.24 4136 2609.76 4136.58 2611.28 4136.58C2612.8 4136.58 2614.32 4136 2615.47 4134.83L3204.43 3541.59V3539.12C3205.96 3539.12 3207.47 3538.53 3208.63 3537.36L3604.06 3139.05C3605.22 3137.89 3605.8 3136.36 3605.8 3134.83C3605.8 3133.3 3605.22 3131.77 3604.06 3130.61L3212.82 2736.52L3303.3 2645.39L3789.2 3134.83L3204.43 3723.84ZM3015.11 3134.83L3204.43 2944.12L3393.76 3134.83L3204.43 3325.54L3015.11 3134.83ZM2314.71 3641.17L2409.37 3736.52L2607.09 3935.67C2608.24 3936.84 2609.76 3937.42 2611.28 3937.42C2612.8 3937.42 2614.32 3936.84 2615.47 3935.67L2813.19 3736.52L3204.43 3342.43V3339.96C3205.96 3339.96 3207.47 3339.37 3208.63 3338.21L3406.34 3139.05C3407.5 3137.89 3408.08 3136.36 3408.08 3134.83C3408.08 3133.3 3407.5 3131.77 3406.34 3130.61L3208.63 2931.45C3207.47 2930.28 3205.95 2929.7 3204.43 2929.7C3202.92 2929.7 3201.4 2930.28 3200.24 2931.45L3002.52 3130.61C3001.36 3131.77 3000.78 3133.3 3000.78 3134.83C3000.78 3136.36 3001.36 3137.89 3002.52 3139.05L3196.04 3333.98L3105.57 3425.12L2817.38 3134.83L3204.43 2744.97L3591.48 3134.83L3204.43 3524.69V3527.16C3202.92 3527.16 3201.4 3527.75 3200.24 3528.91L2611.28 4122.16L2224.23 3732.29L2314.71 3641.17ZM2512.42 3442.01L2602.9 3533.14L2413.56 3723.84L2323.09 3632.72L2512.42 3442.01ZM2800.61 3732.29L2611.28 3923L2421.95 3732.29L2611.28 3541.59L2800.61 3732.29ZM2611.28 3342.43L2899.47 3632.72L2809 3723.84L2615.47 3528.91L2520.81 3433.56L2611.28 3342.43ZM2710.14 3242.85L2998.33 3533.14L2907.85 3624.27L2619.67 3333.98L2710.14 3242.85ZM2809 3143.27L3097.19 3433.56L3006.72 3524.69L2718.53 3234.4L2809 3143.27ZM4384.58 1755.88L4573.48 1946.16L4390.55 2130.42L4201.65 1940.13L4384.58 1755.88ZM3501.01 2446.23L3595.67 2541.59L3793.39 2740.74C3794.55 2741.91 3796.06 2742.49 3797.59 2742.49C3799.11 2742.49 3800.62 2741.91 3801.78 2740.74L3999.5 2541.59L4390.74 2147.49V2147.12L4586.3 1950.14C4587.33 1949.1 4587.83 1947.76 4587.94 1946.39H4588.04C4588.04 1946.31 4587.99 1946.23 4587.99 1946.16C4587.99 1946.07 4588.04 1945.99 4588.04 1945.92H4587.94C4587.83 1944.55 4587.33 1943.21 4586.3 1942.17L4390.74 1745.19V1735.24C4389.22 1735.24 4387.7 1735.83 4386.54 1737L4188.83 1936.15C4187.79 1937.19 4187.29 1938.53 4187.18 1939.89H4187.09C4187.09 1939.98 4187.13 1940.05 4187.13 1940.13C4187.13 1940.22 4187.09 1940.29 4187.09 1940.38H4187.18C4187.29 1941.74 4187.79 1943.08 4188.83 1944.12L4382.36 2139.05L4291.88 2230.18L4003.93 1940.13L4384.58 1556.72L4771.2 1946.16L4384.39 2335.78V2336.15L3797.59 2927.23L3410.54 2537.36L3501.01 2446.23ZM3698.73 2247.07L3789.2 2338.21L3599.86 2528.91L3509.4 2437.78L3698.73 2247.07ZM3986.92 2537.36L3797.59 2728.07L3608.25 2537.36L3797.59 2346.65L3986.92 2537.36ZM3797.59 2147.49L4085.78 2437.78L3995.31 2528.91L3801.78 2333.98L3707.12 2238.63L3797.59 2147.49ZM3896.44 2047.92L4184.63 2338.21L4094.17 2429.33L3805.98 2139.05L3896.44 2047.92ZM3995.31 1948.34L4283.49 2238.63L4193.02 2329.76L3904.83 2039.47L3995.31 1948.34ZM5381.36 751.46L5570.69 560.755L5760.03 751.46L5570.69 942.17L5381.36 751.46ZM4680.96 1257.8L4775.63 1353.15L4973.35 1552.31C4974.5 1553.47 4976.02 1554.06 4977.53 1554.06C4979.06 1554.06 4980.58 1553.47 4981.73 1552.31L5179.45 1353.15L5570.69 959.067V956.593C5572.22 956.593 5573.73 956.008 5574.89 954.841L5772.6 755.686C5773.76 754.519 5774.34 752.99 5774.34 751.46C5774.34 749.93 5773.76 748.406 5772.6 747.24L5574.89 548.079C5573.73 546.913 5572.21 546.332 5570.69 546.332C5569.17 546.332 5567.66 546.913 5566.5 548.079L5368.78 747.24C5367.62 748.406 5367.04 749.93 5367.04 751.46C5367.04 752.99 5367.62 754.519 5368.78 755.686L5562.3 950.616L5471.84 1041.75L5183.65 751.46L5570.69 361.595L5957.74 751.46L5570.69 1141.33V1143.8C5569.17 1143.8 5567.66 1144.38 5566.5 1145.55L4977.53 1738.79L4590.49 1348.93L4680.96 1257.8ZM4878.68 1058.64L4969.15 1149.77L4779.82 1340.48L4689.35 1249.35L4878.68 1058.64ZM5166.87 1348.93L4977.53 1539.64L4788.21 1348.93L4977.53 1158.22L5166.87 1348.93ZM4977.53 959.067L5265.73 1249.35L5175.26 1340.48L4981.73 1145.55L4887.07 1050.2L4977.53 959.067ZM5076.4 859.487L5364.58 1149.77L5274.11 1240.9L4985.92 950.616L5076.4 859.487ZM5175.26 759.911L5463.45 1050.2L5372.97 1141.33L5084.79 851.04L5175.26 759.911ZM6064.98 -136.292L6155.46 -45.1631L5966.13 145.547L5875.66 54.4175L6064.98 -136.292ZM6163.85 -235.868L6452.04 54.4175L6361.56 145.547L6168.04 -49.3836L6073.37 -144.738L6163.85 -235.868ZM6262.7 -335.448L6550.89 -45.1631L6460.43 45.9663L6172.24 -244.319L6262.7 -335.448ZM6361.56 -435.024L6649.75 -144.738L6559.28 -53.609L6271.09 -343.894L6361.56 -435.024ZM6163.85 344.703L5974.51 153.993L6163.85 -36.712L6353.17 153.993L6163.85 344.703ZM5961.93 158.218L6159.65 357.374C6160.81 358.54 6162.32 359.126 6163.85 359.126C6165.37 359.126 6166.88 358.54 6168.04 357.374L6365.76 158.218L6757 -235.868V-252.765L6567.67 -443.475H6553.35C6553.35 -441.945 6553.93 -440.415 6555.09 -439.249L6748.61 -244.319L6658.14 -153.184L6369.95 -443.475H6353.17L5570.69 344.703V347.176C5569.17 347.176 5567.66 347.757 5566.5 348.928L5171.06 747.24C5169.9 748.406 5169.32 749.93 5169.32 751.46H5166.87L4384.39 1539.64V1540.02L3991.11 1936.15C3990.07 1937.19 3989.58 1938.53 3989.47 1939.89H3986.92L3204.43 2728.07V2730.54C3202.92 2730.54 3201.4 2731.12 3200.24 2732.29L2804.8 3130.61C2803.65 3131.77 2803.06 3133.3 2803.06 3134.83H2800.61L2018.13 3923V3923.02L1623.98 4320.03C1622.83 4321.2 1622.25 4322.72 1622.25 4324.25H1636.56L2018.14 3939.91L2405.17 4329.76H2419.5C2419.5 4328.23 2418.92 4326.7 2417.76 4325.54L2026.52 3931.45L2116.98 3840.32L2602.9 4329.76H2619.67L3204.43 3740.74V3738.27C3205.96 3738.27 3207.47 3737.69 3208.63 3736.52L3801.78 3139.05C3802.94 3137.89 3803.52 3136.36 3803.52 3134.83H3805.98L4390.74 2545.81V2545.43L4981.73 1950.14C4982.77 1949.1 4983.27 1947.76 4983.38 1946.39H4985.92L5570.69 1357.38V1354.9C5572.22 1354.9 5573.73 1354.32 5574.89 1353.15L6168.04 755.686C6169.2 754.519 6169.78 752.99 6169.78 751.46H6172.24L6757 162.444V148.021C6755.48 148.021 6753.96 148.601 6752.8 149.767L6163.85 743.014L5677.94 253.573L5768.41 162.444L6159.65 556.53C6160.81 557.696 6162.32 558.282 6163.85 558.282C6165.37 558.282 6166.88 557.696 6168.04 556.53L6757 -36.712V-51.1353C6755.48 -51.1353 6753.96 -50.5548 6752.8 -49.3836L6163.85 543.858L5776.8 153.993L5867.27 62.8634L5961.93 158.218Z" fill="#99C0E9"></path> </g> <g opacity="0.470001"> <path opacity="0.470001" d="M6649.75 1050.2L6559.28 1141.33L6271.09 851.041L6361.56 759.912L6649.75 1050.2ZM6460.43 1240.9L6172.24 950.616L6262.7 859.487L6550.89 1149.77L6460.43 1240.9ZM6361.56 1340.48L6168.04 1145.55L6073.38 1050.2L6163.85 959.067L6452.04 1249.35L6361.56 1340.48ZM6163.85 1539.64L5974.51 1348.93L6163.85 1158.22L6353.17 1348.93L6163.85 1539.64ZM5875.66 1249.35L6064.98 1058.64L6155.46 1149.77L5966.13 1340.48L5875.66 1249.35ZM6155.22 1946.16L5570.69 2534.93V2537.41C5569.17 2537.41 5567.66 2537.99 5566.5 2539.16L4977.53 3132.4L4491.63 2642.96L4582.1 2551.83L4973.35 2945.92C4974.5 2947.08 4976.02 2947.67 4977.53 2947.67C4979.06 2947.67 4980.58 2947.08 4981.73 2945.92L5570.69 2352.67V2350.2C5572.22 2350.2 5573.73 2349.62 5574.89 2348.45L5970.32 1950.14C5971.36 1949.1 5971.85 1947.76 5971.97 1946.4H5972.06C5972.06 1946.31 5972.01 1946.23 5972.01 1946.16C5972.01 1946.07 5972.06 1945.99 5972.06 1945.92H5971.97C5971.85 1944.55 5971.36 1943.21 5970.32 1942.17L5579.08 1548.08L5669.55 1456.95L6155.22 1946.16ZM4384.39 3729.87V3730.24L3797.59 4321.31L3311.68 3831.87L3402.15 3740.74L3793.39 4134.83C3794.55 4136 3796.06 4136.58 3797.59 4136.58C3799.11 4136.58 3800.62 4136 3801.78 4134.83L4390.74 3541.59V3541.21L4784.02 3145.07C4785.17 3143.91 4785.76 3142.37 4785.76 3140.84C4785.76 3139.32 4785.17 3137.79 4784.02 3136.62L4392.78 2742.54L4483.24 2651.41L4969.15 3140.84L4384.39 3729.87ZM4384.58 2950.33L4573.71 3140.84L4390.55 3325.35L4201.41 3134.83L4384.58 2950.33ZM3501.01 3641.17L3595.68 3736.52L3793.39 3935.68C3794.55 3936.84 3796.06 3937.42 3797.59 3937.42C3799.11 3937.42 3800.62 3936.84 3801.78 3935.68L3999.5 3736.52L4390.74 3342.43V3342.06L4586.3 3145.07C4587.46 3143.91 4588.04 3142.37 4588.04 3140.84C4588.04 3139.32 4587.46 3137.79 4586.3 3136.62L4390.74 2939.64V2929.7C4389.22 2929.7 4387.7 2930.28 4386.54 2931.45L4188.83 3130.61C4187.67 3131.77 4187.09 3133.3 4187.09 3134.83C4187.09 3136.36 4187.67 3137.89 4188.83 3139.05L4382.35 3333.98L4291.88 3425.12L4003.69 3134.83L4384.58 2751.18L4771.43 3140.84L4384.39 3530.71V3531.09L3797.59 4122.16L3410.54 3732.29L3501.01 3641.17ZM3698.73 3442.01L3789.2 3533.14L3599.87 3723.85L3509.4 3632.72L3698.73 3442.01ZM3986.92 3732.29L3797.59 3923L3608.26 3732.29L3797.59 3541.59L3986.92 3732.29ZM3797.59 3342.43L4085.78 3632.72L3995.31 3723.85L3801.78 3528.91L3707.12 3433.56L3797.59 3342.43ZM3896.44 3242.85L4184.63 3533.14L4094.16 3624.27L3805.97 3333.98L3896.44 3242.85ZM3995.31 3143.28L4283.49 3433.56L4193.02 3524.69L3904.83 3234.4L3995.31 3143.28ZM5381.61 1946.16L5570.69 1755.69L5759.79 1946.16L5570.69 2136.62L5381.61 1946.16ZM4680.97 2452.25L4775.63 2547.6L4973.35 2746.76C4974.5 2747.93 4976.02 2748.51 4977.53 2748.51C4979.06 2748.51 4980.58 2747.93 4981.73 2746.76L5179.45 2547.6L5570.69 2153.52V2151.04C5572.22 2151.04 5573.73 2150.46 5574.89 2149.3L5772.6 1950.14C5773.64 1949.1 5774.14 1947.76 5774.24 1946.4H5774.34C5774.34 1946.31 5774.3 1946.23 5774.29 1946.16C5774.3 1946.07 5774.34 1945.99 5774.34 1945.92H5774.24C5774.14 1944.55 5773.64 1943.21 5772.6 1942.17L5574.89 1743.01C5573.73 1741.85 5572.21 1741.27 5570.69 1741.27C5569.17 1741.27 5567.66 1741.85 5566.5 1743.01L5368.78 1942.17C5367.75 1943.21 5367.25 1944.55 5367.14 1945.92H5367.04C5367.04 1945.99 5367.09 1946.07 5367.09 1946.16C5367.09 1946.23 5367.04 1946.31 5367.04 1946.4H5367.14C5367.25 1947.76 5367.75 1949.1 5368.78 1950.14L5562.3 2145.07L5471.83 2236.2L5183.88 1946.16L5570.69 1556.53L5957.5 1946.16L5570.69 2335.78V2338.25C5569.17 2338.25 5567.66 2338.84 5566.5 2340L4977.53 2933.24L4590.49 2543.38L4680.97 2452.25ZM4878.68 2253.09L4969.15 2344.22L4779.82 2534.93L4689.35 2443.8L4878.68 2253.09ZM5166.87 2543.38L4977.53 2734.09L4788.21 2543.38L4977.53 2352.67L5166.87 2543.38ZM4977.53 2153.52L5265.73 2443.8L5175.26 2534.93L4981.73 2340L4887.07 2244.65L4977.53 2153.52ZM5076.4 2053.94L5364.59 2344.22L5274.11 2435.36L4985.92 2145.07L5076.4 2053.94ZM5175.26 1954.36L5463.45 2244.65L5372.98 2335.78L5084.79 2045.49L5175.26 1954.36ZM6357.37 747.24C6356.21 748.406 6355.63 749.931 6355.63 751.46H6353.17L5570.69 1539.64V1542.11C5569.17 1542.11 5567.66 1542.7 5566.5 1543.86L5171.06 1942.17C5170.03 1943.21 5169.53 1944.55 5169.42 1945.92H5166.87L4384.39 2734.09V2734.47L3991.11 3130.61C3989.95 3131.77 3989.37 3133.3 3989.37 3134.83H3986.92L3204.43 3923V3925.48C3202.92 3925.48 3201.4 3926.06 3200.24 3927.23L2804.8 4325.54C2803.65 4326.71 2803.06 4328.23 2803.06 4329.76H2817.38L3204.43 3939.9L3591.49 4329.76H3605.8C3605.8 4328.23 3605.22 4326.71 3604.06 4325.54L3212.82 3931.46L3303.3 3840.32L3789.2 4329.76H3805.97L4390.74 3740.74V3740.36L4981.73 3145.07C4982.89 3143.91 4983.47 3142.37 4983.47 3140.84H4985.92L5570.69 2551.83V2549.35C5572.22 2549.35 5573.73 2548.77 5574.89 2547.6L6168.04 1950.14C6169.07 1949.1 6169.57 1947.76 6169.69 1946.4H6172.24L6756.99 1357.38V1342.96C6755.48 1342.96 6753.96 1343.54 6752.8 1344.71L6163.85 1937.95L5677.94 1448.5L5768.41 1357.38L6159.65 1751.46C6160.81 1752.64 6162.32 1753.22 6163.85 1753.22C6165.37 1753.22 6166.88 1752.64 6168.04 1751.46L6756.99 1158.22V1143.8C6755.48 1143.8 6753.96 1144.38 6752.8 1145.55L6163.85 1738.79L5776.8 1348.93L5867.27 1257.8L5961.93 1353.15L6159.65 1552.31C6160.81 1553.48 6162.32 1554.06 6163.85 1554.06C6165.37 1554.06 6166.88 1553.48 6168.04 1552.31L6365.76 1353.15L6756.99 959.067V942.17L6567.67 751.46L6756.99 560.756V546.332C6755.48 546.332 6753.96 546.918 6752.8 548.079L6555.09 747.24C6553.93 748.406 6553.35 749.931 6553.35 751.46C6553.35 752.99 6553.93 754.52 6555.09 755.686L6748.61 950.616L6658.14 1041.75L6369.95 751.46L6756.99 361.6V347.177C6755.48 347.177 6753.96 347.757 6752.8 348.928L6357.37 747.24Z" fill="#99C0E9"></path> </g> <g opacity="0.470001"> <path opacity="0.470001" d="M3204.43 1334.46V1336.94C3202.92 1336.94 3201.4 1337.52 3200.24 1338.69L2611.28 1931.93L2125.37 1442.48L2215.84 1351.36L2607.09 1745.44C2608.24 1746.62 2609.76 1747.2 2611.28 1747.2C2612.8 1747.2 2614.32 1746.62 2615.47 1745.44L3204.43 1152.2V1149.73C3205.96 1149.73 3207.47 1149.14 3208.63 1147.98L3604.06 749.666C3605.22 748.5 3605.8 746.97 3605.8 745.446C3605.8 743.916 3605.22 742.386 3604.06 741.22L3212.82 347.134L3303.3 256L3789.2 745.446L3204.43 1334.46ZM2018.13 2528.92V2528.94L1430.46 3120.87L944.549 2631.43L1035.03 2540.3L1426.27 2934.39C1427.42 2935.55 1428.94 2936.14 1430.46 2936.14C1431.98 2936.14 1433.49 2935.55 1434.66 2934.39L2023.61 2341.15V2341.12L2417.76 1944.12C2418.79 1943.08 2419.29 1941.74 2419.4 1940.38H2419.5C2419.5 1940.29 2419.45 1940.22 2419.45 1940.14C2419.45 1940.05 2419.5 1939.98 2419.5 1939.9H2419.4C2419.29 1938.53 2418.79 1937.19 2417.76 1936.15L2026.51 1542.06L2116.98 1450.93L2602.65 1940.14L2018.13 2528.92ZM837.308 3718.34V3720.81C835.789 3720.81 834.276 3721.4 833.113 3722.56L244.154 4315.81L-241.753 3826.37L-151.281 3735.24L239.959 4129.32C241.117 4130.49 242.636 4131.07 244.154 4131.07C245.678 4131.07 247.192 4130.49 248.344 4129.32L837.308 3536.08V3533.61C838.832 3533.61 840.345 3533.03 841.503 3531.86L1236.93 3133.54C1238.1 3132.38 1238.67 3130.85 1238.67 3129.32C1238.67 3127.8 1238.1 3126.27 1236.93 3125.1L845.698 2731.01L936.169 2639.88L1422.08 3129.32L837.308 3718.34ZM2023.6 2125.08L1834.52 1934.63L2018.14 1749.68L2207.22 1940.14L2023.6 2125.08ZM1133.88 2440.73L1228.55 2536.08L1426.27 2735.24C1427.42 2736.4 1428.94 2736.98 1430.46 2736.98C1431.98 2736.98 1433.49 2736.4 1434.66 2735.24L1632.37 2536.08L2023.61 2141.99V2141.97L2220.04 1944.12C2221.07 1943.08 2221.57 1941.74 2221.68 1940.38H2221.77C2221.77 1940.29 2221.73 1940.22 2221.73 1940.14C2221.73 1940.05 2221.77 1939.98 2221.77 1939.9H2221.68C2221.57 1938.53 2221.07 1937.19 2220.04 1936.15L2023.61 1738.3V1729.74C2022.1 1729.74 2020.58 1730.32 2019.42 1731.49L1821.7 1930.65C1820.66 1931.69 1820.17 1933.02 1820.06 1934.39H1819.97C1819.97 1934.47 1820.01 1934.54 1820.01 1934.63C1820.01 1934.71 1819.97 1934.79 1819.97 1934.87H1820.06C1820.17 1936.23 1820.66 1937.57 1821.7 1938.61L2015.23 2133.54L1924.75 2224.67L1636.8 1934.63L2018.14 1550.52L2404.93 1940.14L2018.13 2329.76V2329.78L1430.46 2921.72L1043.41 2531.85L1133.88 2440.73ZM1331.6 2241.57L1422.08 2332.7L1232.74 2523.41L1142.27 2432.28L1331.6 2241.57ZM1619.79 2531.85L1430.46 2722.56L1241.13 2531.85L1430.46 2341.15L1619.79 2531.85ZM1430.46 2141.99L1718.65 2432.28L1628.18 2523.41L1434.66 2328.48L1339.99 2233.12L1430.46 2141.99ZM1529.32 2042.41L1817.51 2332.7L1727.04 2423.83L1438.85 2133.54L1529.32 2042.41ZM1628.18 1942.84L1916.37 2233.12L1825.9 2324.25L1537.71 2033.97L1628.18 1942.84ZM3015.11 745.446L3204.43 554.735L3393.76 745.446L3204.43 936.15L3015.11 745.446ZM2314.7 1251.78L2409.37 1347.14L2607.09 1546.29C2608.24 1547.46 2609.76 1548.04 2611.28 1548.04C2612.8 1548.04 2614.32 1547.46 2615.47 1546.29L2813.19 1347.14L3204.43 953.047V950.573C3205.96 950.573 3207.47 949.988 3208.63 948.822L3406.34 749.666C3407.5 748.5 3408.08 746.97 3408.08 745.446C3408.08 743.916 3407.5 742.386 3406.34 741.22L3208.63 542.064C3207.47 540.898 3205.95 540.312 3204.43 540.312C3202.92 540.312 3201.4 540.898 3200.24 542.064L3002.52 741.22C3001.36 742.386 3000.78 743.916 3000.78 745.446C3000.78 746.97 3001.36 748.5 3002.52 749.666L3196.04 944.596L3105.57 1035.73L2817.38 745.446L3204.43 355.58L3591.48 745.446L3204.43 1135.31V1137.78C3202.92 1137.78 3201.4 1138.36 3200.24 1139.53L2611.28 1732.77L2224.23 1342.91L2314.7 1251.78ZM2512.42 1052.62L2602.89 1143.76L2413.56 1334.46L2323.09 1243.33L2512.42 1052.62ZM2800.61 1342.91L2611.28 1533.62L2421.95 1342.91L2611.28 1152.2L2800.61 1342.91ZM2611.28 953.047L2899.47 1243.33L2809 1334.46L2615.47 1139.53L2520.81 1044.18L2611.28 953.047ZM2710.14 853.472L2998.33 1143.76L2907.85 1234.88L2619.67 944.596L2710.14 853.472ZM2809 753.891L3097.19 1044.18L3006.72 1135.31L2718.53 845.021L2809 753.891ZM730.061 3428.05L639.59 3519.19L351.401 3228.9L441.872 3137.77L730.061 3428.05ZM647.98 3129.32L837.308 2938.62L1026.64 3129.32L837.308 3320.03L647.98 3129.32ZM3698.73 -142.312L3789.2 -51.1777L3599.86 139.527L3509.4 48.3977L3698.73 -142.312ZM3797.59 -241.887L4085.78 48.3977L3995.31 139.527L3801.78 -55.4031L3707.12 -150.758L3797.59 -241.887ZM3896.44 -341.463L4184.63 -51.1777L4094.17 39.9515L3805.98 -250.334L3896.44 -341.463ZM3995.31 -441.043L4283.49 -150.758L4193.02 -59.6288L3904.83 -349.914L3995.31 -441.043ZM3797.59 338.683L3608.25 147.973L3797.59 -42.7314L3986.92 147.973L3797.59 338.683ZM4969.15 -443.471L4384.39 145.55V145.929L3797.59 736.994L3311.68 247.553L3402.15 156.424L3793.39 550.51C3794.55 551.676 3796.06 552.262 3797.59 552.262C3799.11 552.262 3800.62 551.676 3801.78 550.51L4390.74 -42.7314V-43.1105L4784.02 -439.246C4785.17 -440.412 4785.76 -441.942 4785.76 -443.471H4771.43L4384.39 -53.611V-53.2326L3797.59 537.838L3410.54 147.973L3501.01 56.8488L3595.67 152.198L3793.39 351.354C3794.55 352.526 3796.06 353.106 3797.59 353.106C3799.11 353.106 3800.62 352.526 3801.78 351.354L3999.5 152.198L4390.74 -241.887V-242.266L4586.3 -439.246C4587.46 -440.412 4588.04 -441.942 4588.04 -443.471H4573.71L4390.55 -258.971L4201.41 -449.489H4187.09C4187.09 -447.96 4187.67 -446.435 4188.83 -445.264L4382.36 -250.334L4291.88 -159.204L4003.69 -449.489H3986.92L3204.43 338.683V341.156C3202.92 341.156 3201.4 341.742 3200.24 342.908L2804.8 741.22C2803.65 742.386 2803.06 743.916 2803.06 745.446H2800.61L2018.13 1533.62V1533.64L1623.98 1930.65C1622.95 1931.69 1622.45 1933.02 1622.34 1934.39H1619.79L837.308 2722.56V2725.03C835.789 2725.03 834.276 2725.62 833.113 2726.79L437.682 3125.1C436.52 3126.27 435.943 3127.8 435.943 3129.32H433.487L107.242 3457.94H124.017L145.298 3436.5L166.574 3457.94H183.349L153.683 3428.05L244.154 3336.92L364.292 3457.94H381.067L252.54 3328.48L343.016 3237.35L631.205 3527.63L564.365 3594.96C564.385 3595.38 564.43 3595.79 564.45 3596.21C564.686 3601.61 564.511 3606.94 564.025 3612.2L837.308 3336.92V3334.45C838.832 3334.45 840.345 3333.87 841.503 3332.7L1039.22 3133.54C1040.38 3132.38 1040.95 3130.85 1040.95 3129.32C1040.95 3127.8 1040.38 3126.27 1039.22 3125.1L841.503 2925.94C840.345 2924.77 838.827 2924.19 837.308 2924.19C835.789 2924.19 834.276 2924.77 833.113 2925.94L635.395 3125.1C634.237 3126.27 633.656 3127.8 633.656 3129.32C633.656 3130.85 634.237 3132.38 635.395 3133.54L828.918 3328.48L738.446 3419.61L450.257 3129.32L837.308 2739.46L1224.36 3129.32L837.308 3519.19V3521.66C835.789 3521.66 834.276 3522.24 833.113 3523.41L244.154 4116.65L-135.258 3734.48H-167.304L-348.999 3917.49V3934.39L38.0466 4324.26H52.3707C52.3707 4322.73 51.7894 4321.2 50.6316 4320.03L-340.609 3925.95L-250.143 3834.81L235.769 4324.26H252.54L837.308 3735.24V3732.77C838.832 3732.77 840.345 3732.18 841.503 3731.02L1434.66 3133.54C1435.81 3132.38 1436.39 3130.85 1436.39 3129.32H1438.85L2023.61 2540.3V2540.29L2615.47 1944.12C2616.51 1943.08 2617.01 1941.74 2617.11 1940.38H2619.67L3204.43 1351.36V1348.88C3205.96 1348.88 3207.47 1348.3 3208.63 1347.14L3801.78 749.666C3802.94 748.5 3803.52 746.97 3803.52 745.446H3805.98L4390.74 156.424V156.046L4981.73 -439.246C4982.89 -440.412 4983.47 -441.942 4983.47 -443.471H4969.15Z" fill="#99C0E9"></path> </g> <g opacity="0.470001"> <path opacity="0.470001" d="M2018.13 3723.86L1430.46 4315.8L944.553 3826.37L1035.03 3735.23L1426.27 4129.32C1427.43 4130.49 1428.94 4131.07 1430.46 4131.07C1431.98 4131.07 1433.5 4130.49 1434.66 4129.32L2023.61 3536.08V3536.06L2417.76 3139.05C2418.91 3137.89 2419.5 3136.36 2419.5 3134.83C2419.5 3133.3 2418.91 3131.77 2417.76 3130.6L2026.52 2736.52L2116.99 2645.39L2602.89 3134.83L2018.13 3723.84V3723.86ZM2023.6 3320.02L1834.28 3129.32L2018.14 2944.13L2207.45 3134.83L2023.6 3320.02ZM1133.88 3635.66L1228.55 3731.01L1426.27 3930.17C1427.43 3931.33 1428.94 3931.92 1430.46 3931.92C1431.98 3931.92 1433.5 3931.33 1434.66 3930.17L1632.37 3731.01L2023.61 3336.92V3336.91L2220.04 3139.05C2221.2 3137.89 2221.78 3136.36 2221.78 3134.83C2221.78 3133.3 2221.2 3131.77 2220.04 3130.6L2023.61 2932.75V2924.19C2022.1 2924.19 2020.58 2924.77 2019.42 2925.94L1821.71 3125.1C1820.54 3126.27 1819.97 3127.8 1819.97 3129.32C1819.97 3130.85 1820.54 3132.38 1821.71 3133.54L2015.23 3328.48L1924.75 3419.61L1636.56 3129.32L2018.14 2744.98L2405.18 3134.83L2018.13 3524.69V3524.71L1430.46 4116.65L1043.41 3726.79L1133.88 3635.66ZM1331.6 3436.5L1422.08 3527.63L1232.74 3718.34L1142.27 3627.21L1331.6 3436.5ZM1619.79 3726.79L1430.46 3917.49L1241.13 3726.79L1430.46 3536.08L1619.79 3726.79ZM1430.46 3336.92L1718.65 3627.21L1628.18 3718.34L1434.66 3523.41L1339.99 3428.05L1430.46 3336.92ZM1529.32 3237.35L1817.51 3527.63L1727.04 3618.76L1438.85 3328.48L1529.32 3237.35ZM1628.18 3137.77L1916.37 3428.05L1825.9 3519.19L1537.71 3228.9L1628.18 3137.77ZM2215.84 2545.81L2607.09 2939.9C2608.24 2941.06 2609.76 2941.65 2611.28 2941.65C2612.8 2941.65 2614.32 2941.06 2615.47 2939.9L3204.43 2346.65V2344.18C3205.96 2344.18 3207.47 2343.6 3208.63 2342.43L3604.06 1944.12C3605.1 1943.08 3605.59 1941.74 3605.71 1940.38H3605.8C3605.8 1940.29 3605.76 1940.22 3605.76 1940.14C3605.76 1940.05 3605.8 1939.98 3605.8 1939.89H3605.71C3605.59 1938.53 3605.1 1937.19 3604.06 1936.15L3212.82 1542.06L3303.29 1450.93L3788.96 1940.14L3204.43 2528.91V2531.38C3202.92 2531.38 3201.4 2531.97 3200.24 2533.14L2611.28 3126.38L2125.37 2636.94L2215.84 2545.81ZM3015.34 1940.14L3204.43 1749.67L3393.52 1940.14L3204.43 2130.6L3015.34 1940.14ZM2314.7 2446.23L2409.37 2541.59L2607.09 2740.74C2608.24 2741.91 2609.76 2742.49 2611.28 2742.49C2612.8 2742.49 2614.32 2741.91 2615.47 2740.74L2813.19 2541.59L3204.43 2147.5V2145.03C3205.96 2145.03 3207.47 2144.44 3208.63 2143.27L3406.34 1944.12C3407.38 1943.08 3407.88 1941.74 3407.99 1940.38H3408.08C3408.08 1940.29 3408.04 1940.22 3408.03 1940.14C3408.04 1940.05 3408.08 1939.98 3408.08 1939.89H3407.99C3407.88 1938.53 3407.38 1937.19 3406.34 1936.15L3208.63 1736.99C3207.47 1735.83 3205.95 1735.24 3204.43 1735.24C3202.92 1735.24 3201.4 1735.83 3200.24 1736.99L3002.52 1936.15C3001.49 1937.19 3000.99 1938.53 3000.88 1939.89H3000.79C3000.79 1939.98 3000.83 1940.05 3000.83 1940.14C3000.83 1940.22 3000.79 1940.29 3000.79 1940.38H3000.88C3000.99 1941.74 3001.49 1943.08 3002.52 1944.12L3196.05 2139.05L3105.58 2230.18L2817.63 1940.14L3204.43 1550.51L3591.24 1940.14L3204.43 2329.76V2332.23C3202.92 2332.23 3201.4 2332.81 3200.24 2333.98L2611.28 2927.22L2224.23 2537.36L2314.7 2446.23ZM2512.42 2247.08L2602.89 2338.2L2413.56 2528.91L2323.09 2437.78L2512.42 2247.08ZM2800.61 2537.36L2611.28 2728.07L2421.95 2537.36L2611.28 2346.65L2800.61 2537.36ZM2611.28 2147.5L2899.47 2437.78L2809 2528.91L2615.47 2333.98L2520.81 2238.63L2611.28 2147.5ZM2710.14 2047.92L2998.32 2338.2L2907.86 2429.33L2619.67 2139.05L2710.14 2047.92ZM2809 1948.34L3097.19 2238.63L3006.71 2329.76L2718.53 2039.47L2809 1948.34ZM3402.15 1351.36L3793.39 1745.44C3794.55 1746.61 3796.06 1747.19 3797.59 1747.19C3799.11 1747.19 3800.62 1746.61 3801.78 1745.44L4390.74 1152.2V1151.82L4784.01 755.686C4785.17 754.52 4785.75 752.99 4785.75 751.461C4785.75 749.931 4785.17 748.401 4784.01 747.235L4392.77 353.149L4483.25 262.02L4969.15 751.461L4384.38 1340.48V1340.86L3797.59 1931.93L3311.68 1442.49L3402.15 1351.36ZM4384.57 560.943L4573.72 751.461L4390.55 935.961L4201.41 745.443L4384.57 560.943ZM3501.01 1251.78L3595.67 1347.14L3793.39 1546.29C3794.55 1547.46 3796.06 1548.04 3797.59 1548.04C3799.11 1548.04 3800.62 1547.46 3801.78 1546.29L3999.5 1347.14L4390.74 953.045V952.666L4586.3 755.686C4587.46 754.52 4588.04 752.99 4588.04 751.461C4588.04 749.931 4587.46 748.401 4586.3 747.235L4390.74 550.255V540.31C4389.22 540.31 4387.7 540.895 4386.54 542.062L4188.83 741.217C4187.67 742.383 4187.09 743.913 4187.09 745.443C4187.09 746.968 4187.67 748.497 4188.83 749.663L4382.35 944.594L4291.88 1035.73L4003.69 745.443L4384.57 361.787L4771.43 751.461L4384.38 1141.32V1141.7L3797.59 1732.78L3410.54 1342.91L3501.01 1251.78ZM3698.72 1052.62L3789.2 1143.75L3599.87 1334.46L3509.4 1243.33L3698.72 1052.62ZM3986.91 1342.91L3797.59 1533.62L3608.26 1342.91L3797.59 1152.2L3986.91 1342.91ZM3797.59 953.045L4085.77 1243.33L3995.3 1334.46L3801.78 1139.53L3707.11 1044.17L3797.59 953.045ZM3896.45 853.469L4184.64 1143.75L4094.17 1234.88L3805.98 944.594L3896.45 853.469ZM3995.3 753.889L4283.49 1044.17L4193.02 1135.3L3904.83 845.018L3995.3 753.889ZM4878.68 -136.292L4969.15 -45.1625L4779.82 145.547L4689.35 54.4129L4878.68 -136.292ZM4977.54 -235.872L5265.73 54.4129L5175.26 145.547L4981.73 -49.3879L4887.07 -144.738L4977.54 -235.872ZM5076.39 -335.448L5364.58 -45.1625L5274.12 45.967L4985.93 -244.318L5076.39 -335.448ZM5175.26 -435.023L5463.44 -144.738L5372.97 -53.6137L5084.78 -343.899L5175.26 -435.023ZM4977.54 344.698L4788.2 153.993L4977.54 -36.7114L5166.87 153.993L4977.54 344.698ZM2023.61 3735.22L2615.47 3139.05C2616.63 3137.89 2617.21 3136.36 2617.21 3134.83H2619.67L3204.43 2545.81V2543.33C3205.96 2543.33 3207.47 2542.75 3208.63 2541.59L3801.78 1944.12C3802.81 1943.08 3803.31 1941.74 3803.42 1940.38H3805.98L4390.74 1351.36V1350.98L4981.73 755.686C4982.89 754.52 4983.47 752.99 4983.47 751.461H4985.93L5570.69 162.439V159.971C5572.21 159.971 5573.73 159.385 5574.89 158.219L6168.04 -439.248C6169.2 -440.415 6169.78 -441.944 6169.78 -443.474H6155.45L5570.69 145.547V148.016C5569.18 148.016 5567.66 148.602 5566.5 149.768L4977.54 743.01L4491.64 253.574L4582.1 162.439L4973.35 556.531C4974.5 557.697 4976.02 558.282 4977.54 558.282C4979.06 558.282 4980.58 557.697 4981.73 556.531L5570.69 -36.7114V-39.1903C5572.21 -39.1903 5573.73 -39.7709 5574.89 -40.9371L5970.32 -439.248C5971.48 -440.415 5972.06 -441.944 5972.06 -443.474H5957.74L5570.69 -53.6137V-51.1347C5569.18 -51.1347 5567.66 -50.5541 5566.5 -49.3879L4977.54 543.859L4590.49 153.993L4680.96 62.864L4775.63 158.219L4973.35 357.375C4974.5 358.541 4976.02 359.121 4977.54 359.121C4979.06 359.121 4980.58 358.541 4981.73 357.375L5179.45 158.219L5570.69 -235.872V-238.341C5572.21 -238.341 5573.73 -238.927 5574.89 -240.093L5772.6 -439.248C5773.76 -440.415 5774.34 -441.944 5774.34 -443.474H5760.02L5570.69 -252.764L5381.36 -443.474H5367.04C5367.04 -441.944 5367.62 -440.415 5368.78 -439.248L5562.31 -244.318L5471.83 -153.189L5183.65 -443.474H5166.87L4384.38 344.698V345.082L3991.11 741.217C3989.95 742.383 3989.37 743.913 3989.37 745.443H3986.91L3204.43 1533.62V1536.09C3202.92 1536.09 3201.4 1536.67 3200.24 1537.84L2804.8 1936.15C2803.77 1937.19 2803.27 1938.53 2803.16 1939.89H2800.61L2018.13 2728.07V2728.09L1623.98 3125.1C1622.83 3126.27 1622.25 3127.8 1622.25 3129.32H1619.79L837.307 3917.49V3919.97C835.793 3919.97 834.274 3920.55 833.112 3921.72L437.681 4320.03C436.523 4321.2 435.942 4322.73 435.942 4324.25H450.261L837.307 3934.39L1224.36 4324.25H1238.67C1238.67 4322.73 1238.1 4321.2 1236.94 4320.03L845.697 3925.94L936.168 3834.81L1422.08 4324.25H1438.85L2023.61 3735.23V3735.22Z" fill="#99C0E9"></path> </g> <g opacity="0.470001"> <path opacity="0.470001" d="M-241.752 1436.98L-151.28 1345.85L239.96 1739.94C241.118 1741.11 242.637 1741.69 244.155 1741.69C245.679 1741.69 247.193 1741.11 248.345 1739.94L837.309 1146.7V1144.22C838.832 1144.22 840.341 1143.64 841.504 1142.47L1236.93 744.161C1238.1 742.995 1238.67 741.465 1238.67 739.935C1238.67 738.405 1238.1 736.881 1236.93 735.71L845.699 341.624L936.17 250.494L1422.08 739.935L837.309 1328.96V1331.43C835.79 1331.43 834.272 1332.01 833.114 1333.18L244.155 1926.42L-241.752 1436.98ZM647.981 739.935L837.309 549.231L1026.64 739.935L837.309 930.645L647.981 739.935ZM-52.4238 1246.27L42.2425 1341.63L239.96 1540.78C241.118 1541.95 242.637 1542.53 244.155 1542.53C245.679 1542.53 247.193 1541.95 248.345 1540.78L446.063 1341.63L837.309 947.537V945.068C838.832 945.068 840.341 944.483 841.504 943.316L1039.22 744.161C1040.37 742.995 1040.96 741.465 1040.96 739.935C1040.96 738.405 1040.37 736.881 1039.22 735.71L841.504 536.559C840.341 535.388 838.827 534.807 837.309 534.807C835.79 534.807 834.272 535.388 833.114 536.559L635.396 735.71C634.238 736.881 633.657 738.405 633.657 739.935C633.657 741.465 634.238 742.995 635.396 744.161L828.919 939.091L738.447 1030.22L450.258 739.935L837.309 350.075L1224.36 739.935L837.309 1129.8V1132.27C835.79 1132.27 834.272 1132.86 833.114 1134.02L244.155 1727.27L-142.89 1337.4L-52.4238 1246.27ZM145.299 1047.12L235.765 1138.25L46.4376 1328.96L-44.0338 1237.83L145.299 1047.12ZM433.488 1337.4L244.155 1528.11L54.8226 1337.4L244.155 1146.7L433.488 1337.4ZM244.155 947.537L532.345 1237.83L441.868 1328.96L248.345 1134.02L153.679 1038.67L244.155 947.537ZM343.012 847.962L631.206 1138.25L540.73 1229.38L252.54 939.091L343.012 847.962ZM441.868 748.386L730.057 1038.67L639.591 1129.8L351.402 839.516L441.868 748.386ZM1331.6 -147.817L1422.08 -56.6882L1232.74 134.022L1142.27 42.8924L1331.6 -147.817ZM1430.46 -247.393L1718.65 42.8924L1628.18 134.022L1434.65 -60.9133L1339.99 -156.264L1430.46 -247.393ZM1529.32 -346.973L1817.51 -56.6882L1727.04 34.4414L1438.85 -255.844L1529.32 -346.973ZM1628.18 -446.549L1916.37 -156.264L1825.9 -65.1341L1537.71 -355.419L1628.18 -446.549ZM1430.46 333.178L1241.13 142.468L1430.46 -48.2368L1619.79 142.468L1430.46 333.178ZM248.345 1938.61C249.383 1937.57 249.884 1936.23 249.989 1934.87H252.54L837.309 1345.85V1343.38C838.832 1343.38 840.341 1342.79 841.504 1341.63L1434.65 744.161C1435.82 742.995 1436.39 741.465 1436.39 739.935H1438.85L2023.61 150.919V150.899L2615.47 -445.266C2616.63 -446.432 2617.21 -447.962 2617.21 -449.492H2602.89L2018.13 139.53V139.545L1430.46 731.484L944.55 242.048L1035.03 150.919L1426.27 545.005C1427.43 546.171 1428.94 546.757 1430.46 546.757C1431.98 546.757 1433.49 546.171 1434.65 545.005L2023.61 -48.2368V-48.2571L2417.76 -445.266C2418.91 -446.432 2419.5 -447.962 2419.5 -449.492H2405.17L2018.13 -59.6263V-59.6062L1430.46 532.333L1043.41 142.468L1133.88 51.3384L1228.54 146.693L1426.27 345.849C1427.43 347.015 1428.94 347.601 1430.46 347.601C1431.98 347.601 1433.49 347.015 1434.65 345.849L1632.38 146.693L2023.61 -247.393V-247.413L2220.04 -445.266C2221.2 -446.432 2221.77 -447.962 2221.77 -449.492H2207.46L2023.6 -264.3L1834.28 -455H1819.96C1819.96 -453.47 1820.55 -451.94 1821.7 -450.774L2015.23 -255.844L1924.75 -164.714L1636.57 -455H1619.79L837.309 333.178V335.651C835.79 335.651 834.272 336.232 833.114 337.398L437.683 735.71C436.52 736.881 435.944 738.405 435.944 739.935H433.488L-348.998 1528.11V1545L37.8069 1934.63L-348.998 2324.25V2338.67C-347.479 2338.67 -345.961 2338.09 -344.808 2336.93L50.6326 1938.61C51.6651 1937.57 52.1663 1936.23 52.2766 1934.87H52.3718C52.3718 1934.78 52.3266 1934.71 52.3216 1934.63C52.3266 1934.55 52.3718 1934.47 52.3718 1934.39H52.2766C52.1663 1933.03 51.6651 1931.68 50.6326 1930.64L-340.613 1536.56L-250.142 1445.43L235.53 1934.63L-348.998 2523.41V2537.83C-347.479 2537.83 -345.961 2537.24 -344.808 2536.08L248.345 1938.61Z" fill="#99C0E9"></path> </g> <g opacity="0.470001"> <path opacity="0.470001" d="M2018.13 1334.46V1334.48L1430.46 1926.42L944.553 1436.98L1035.03 1345.85L1426.27 1739.94C1427.43 1741.11 1428.94 1741.69 1430.46 1741.69C1431.98 1741.69 1433.5 1741.11 1434.66 1739.94L2023.61 1146.69V1146.67L2417.76 749.665C2418.91 748.499 2419.5 746.969 2419.5 745.445C2419.5 743.915 2418.91 742.385 2417.76 741.219L2026.52 347.133L2116.99 255.999L2602.89 745.445L2018.13 1334.46ZM837.307 2523.41V2525.88C835.793 2525.88 834.275 2526.46 833.112 2527.63L244.158 3120.87L-241.753 2631.43L-151.282 2540.3L239.963 2934.39C241.116 2935.55 242.635 2936.14 244.158 2936.14C245.677 2936.14 247.191 2935.55 248.348 2934.39L837.307 2341.14V2338.68C838.831 2338.68 840.344 2338.09 841.502 2336.92L1236.94 1938.61C1237.98 1937.57 1238.47 1936.23 1238.58 1934.87H1238.67C1238.67 1934.79 1238.63 1934.71 1238.63 1934.63C1238.63 1934.54 1238.67 1934.47 1238.67 1934.39H1238.58C1238.47 1933.02 1237.98 1931.69 1236.94 1930.65L845.697 1536.55L936.168 1445.43L1421.83 1934.63L837.307 2523.41ZM648.22 1934.63L837.307 1744.16L1026.4 1934.63L837.307 2125.09L648.22 1934.63ZM-52.4207 2440.73L42.2457 2536.08L239.963 2735.24C241.116 2736.4 242.635 2736.98 244.158 2736.98C245.677 2736.98 247.191 2736.4 248.348 2735.24L446.066 2536.08L837.307 2141.99V2139.52C838.831 2139.52 840.344 2138.94 841.502 2137.77L1039.22 1938.61C1040.26 1937.57 1040.75 1936.23 1040.87 1934.87H1040.95C1040.95 1934.79 1040.91 1934.71 1040.91 1934.63C1040.91 1934.54 1040.95 1934.47 1040.95 1934.39H1040.87C1040.75 1933.02 1040.26 1931.69 1039.22 1930.65L841.502 1731.49C840.344 1730.32 838.826 1729.74 837.307 1729.74C835.793 1729.74 834.275 1730.32 833.112 1731.49L635.394 1930.65C634.362 1931.69 633.865 1933.02 633.75 1934.39H633.66C633.66 1934.47 633.7 1934.54 633.705 1934.63C633.7 1934.71 633.66 1934.79 633.66 1934.87H633.75C633.865 1936.23 634.362 1937.57 635.394 1938.61L828.922 2133.54L738.451 2224.67L450.502 1934.63L837.307 1545.01L1224.12 1934.63L837.307 2324.25V2326.73C835.793 2326.73 834.275 2327.31 833.112 2328.48L244.158 2921.71L-142.892 2531.85L-52.4207 2440.73ZM145.297 2241.57L235.768 2332.7L46.4357 2523.41L-44.0307 2432.28L145.297 2241.57ZM433.486 2531.85L244.158 2722.56L54.8208 2531.85L244.158 2341.14L433.486 2531.85ZM244.158 2141.99L532.348 2432.28L441.871 2523.41L248.348 2328.48L153.682 2233.12L244.158 2141.99ZM343.015 2042.41L631.204 2332.7L540.733 2423.83L252.544 2133.54L343.015 2042.41ZM441.871 1942.84L730.06 2233.12L639.589 2324.25L351.4 2033.97L441.871 1942.84ZM2023.6 930.631L1834.28 739.937L2018.14 554.745L2207.45 745.445L2023.6 930.631ZM1133.88 1246.27L1228.55 1341.63L1426.27 1540.78C1427.43 1541.95 1428.94 1542.53 1430.46 1542.53C1431.98 1542.53 1433.5 1541.95 1434.66 1540.78L1632.37 1341.63L2023.61 947.539V947.518L2220.04 749.665C2221.2 748.499 2221.78 746.969 2221.78 745.445C2221.78 743.915 2221.2 742.385 2220.04 741.219L2023.61 543.366V534.804C2022.1 534.804 2020.58 535.389 2019.42 536.556L1821.71 735.711C1820.54 736.877 1819.97 738.407 1819.97 739.937C1819.97 741.467 1820.54 742.991 1821.71 744.162L2015.23 939.093L1924.75 1030.22L1636.56 739.937L2018.14 355.589L2405.18 745.445L2018.13 1135.31V1135.33L1430.46 1727.27L1043.41 1337.4L1133.88 1246.27ZM1331.6 1047.12L1422.08 1138.25L1232.74 1328.95L1142.27 1237.82L1331.6 1047.12ZM1619.79 1337.4L1430.46 1528.11L1241.13 1337.4L1430.46 1146.69L1619.79 1337.4ZM1430.46 947.539L1718.65 1237.82L1628.18 1328.95L1434.66 1134.02L1339.99 1038.67L1430.46 947.539ZM1529.32 847.963L1817.51 1138.25L1727.04 1229.38L1438.85 939.093L1529.32 847.963ZM1628.18 748.383L1916.37 1038.67L1825.9 1129.8L1537.71 839.512L1628.18 748.383ZM2512.42 -142.313L2602.89 -51.1785L2413.56 139.526L2323.09 48.3969L2512.42 -142.313ZM2611.28 -241.888L2899.47 48.3969L2809 139.526L2615.47 -55.4042L2520.81 -150.759L2611.28 -241.888ZM2710.14 -341.464L2998.32 -51.1785L2907.86 39.951L2619.67 -250.334L2710.14 -341.464ZM2809 -441.044L3097.19 -150.759L3006.71 -59.6296L2718.53 -349.915L2809 -441.044ZM2611.28 338.682L2421.95 147.972L2611.28 -42.7326L2800.61 147.972L2611.28 338.682ZM3789.2 -449.49L3204.43 139.526V142C3202.92 142 3201.4 142.586 3200.24 143.752L2611.28 736.994L2125.37 247.553L2215.84 156.423L2607.09 550.509C2608.24 551.676 2609.76 552.261 2611.28 552.261C2612.8 552.261 2614.32 551.676 2615.47 550.509L3204.43 -42.7326V-45.2063C3205.96 -45.2063 3207.47 -45.7866 3208.63 -46.9528L3604.06 -445.265C3605.22 -446.436 3605.8 -447.96 3605.8 -449.49H3591.48L3204.43 -59.6296V-57.1559C3202.92 -57.1559 3201.4 -56.5704 3200.24 -55.4042L2611.28 537.838L2224.23 147.972L2314.7 56.848L2409.37 152.198L2607.09 351.354C2608.24 352.525 2609.76 353.105 2611.28 353.105C2612.8 353.105 2614.32 352.525 2615.47 351.354L2813.19 152.198L3204.43 -241.888V-244.362C3205.96 -244.362 3207.47 -244.948 3208.63 -246.114L3406.34 -445.265C3407.5 -446.436 3408.08 -447.96 3408.08 -449.49H3393.77L3204.43 -258.786L3015.11 -449.49H3000.79C3000.79 -447.96 3001.36 -446.436 3002.52 -445.265L3196.05 -250.334L3105.58 -159.205L2817.39 -449.49H2800.61L2018.13 338.682V338.702L1623.98 735.711C1622.83 736.877 1622.25 738.407 1622.25 739.937H1619.79L837.307 1528.11V1530.59C835.793 1530.59 834.275 1531.17 833.112 1532.33L437.681 1930.65C436.644 1931.69 436.143 1933.02 436.037 1934.39H433.486L-349 2722.56V2739.46L38.0506 3129.32L-288.19 3457.93H-271.414L50.6306 3133.54C51.7884 3132.38 52.3698 3130.85 52.3698 3129.32C52.3698 3127.8 51.7884 3126.27 50.6306 3125.1L-340.61 2731.01L-250.139 2639.88L235.768 3129.32L-90.4768 3457.93H-73.6967L248.348 3133.54C249.506 3132.38 250.083 3130.85 250.083 3129.32H252.544L837.307 2540.3V2537.83C838.831 2537.83 840.344 2537.25 841.502 2536.08L1434.66 1938.61C1435.69 1937.57 1436.19 1936.23 1436.3 1934.87H1438.85L2023.61 1345.85V1345.83L2615.47 749.665C2616.63 748.499 2617.21 746.969 2617.21 745.445H2619.67L3204.43 156.423V153.949C3205.96 153.949 3207.47 153.369 3208.63 152.198L3801.78 -445.265C3802.94 -446.436 3803.52 -447.96 3803.52 -449.49H3789.2Z" fill="#99C0E9"></path> </g> <g opacity="0.470001"> <path opacity="0.470001" d="M145.298 -147.818L235.769 -56.6889L46.4366 134.021L-44.0297 42.8916L145.298 -147.818ZM244.159 -247.394L532.349 42.8916L441.872 134.021L248.35 -60.9144L153.683 -156.264L244.159 -247.394ZM343.011 -346.974L631.205 -56.6889L540.729 34.4404L252.54 -255.845L343.011 -346.974ZM441.872 -446.549L730.061 -156.264L639.59 -65.1349L351.401 -355.42L441.872 -446.549ZM244.159 333.177L54.8217 142.467L244.159 -48.2377L433.487 142.467L244.159 333.177ZM248.35 744.16C249.507 742.994 250.084 741.464 250.084 739.934H252.54L837.308 150.918V148.444C838.832 148.444 840.345 147.859 841.503 146.693L1434.66 -450.775C1435.81 -451.941 1436.4 -453.471 1436.4 -455H1422.08L837.308 134.021V136.495C835.794 136.495 834.276 137.075 833.113 138.246L244.159 731.483L-241.753 242.047L-151.281 150.918L239.964 545.004C241.117 546.17 242.636 546.756 244.159 546.756C245.678 546.756 247.192 546.17 248.35 545.004L837.308 -48.2377V-50.7116C838.832 -50.7116 840.345 -51.2971 841.503 -52.4633L1236.94 -450.775C1238.1 -451.941 1238.67 -453.471 1238.67 -455H1224.36L837.308 -65.1349V-62.6611C835.794 -62.6611 834.276 -62.0806 833.113 -60.9144L244.159 532.332L-142.891 142.467L-52.4198 51.3376L42.2416 146.693L239.964 345.848C241.117 347.015 242.636 347.6 244.159 347.6C245.678 347.6 247.192 347.015 248.35 345.848L446.067 146.693L837.308 -247.394V-249.867C838.832 -249.867 840.345 -250.453 841.503 -251.619L1039.22 -450.775C1040.38 -451.941 1040.95 -453.471 1040.95 -455H1026.64L837.308 -264.291L647.98 -455H633.656C633.656 -453.471 634.242 -451.941 635.395 -450.775L828.918 -255.845L738.452 -164.715L450.262 -455H433.487L-348.999 333.177V350.074L38.0516 739.934L-348.999 1129.8V1144.22C-347.475 1144.22 -345.962 1143.64 -344.804 1142.47L50.6317 744.16C51.7894 742.994 52.3708 741.464 52.3708 739.934C52.3708 738.405 51.7894 736.88 50.6317 735.709L-340.609 341.623L-250.138 250.493L235.769 739.934L-348.999 1328.96V1343.38C-347.475 1343.38 -345.962 1342.79 -344.804 1341.63L248.35 744.16Z" fill="#99C0E9"></path> </g> </g> </g> <defs> <clipPath id="clip0"> <rect width="5000" height="3000" fill="white" transform="translate(0 3000)"></rect> </clipPath> <clipPath id="clip1"> <rect width="5000" height="3000" fill="white"></rect> </clipPath> </defs> </svg> 